<?xml version="1.0" encoding="UTF-8"?>
<!DOCTYPE svg PUBLIC "-//W3C//DTD SVG 1.1//EN" "http://www.w3.org/Graphics/SVG/1.1/DTD/svg11.dtd">
<svg xmlns="http://www.w3.org/2000/svg" version="1.1" width="500px" height="500px" viewBox="0 0 500 500" style="shape-rendering:geometricPrecision; text-rendering:geometricPrecision; image-rendering:optimizeQuality; fill-rule:evenodd; clip-rule:evenodd">
<g><path style="opacity:0.964" fill="#ab85f9" d="M 239.5,-0.5 C 247.5,-0.5 255.5,-0.5 263.5,-0.5C 263.833,0.166667 264.167,0.833333 264.5,1.5C 264.5,3.16667 264.5,4.83333 264.5,6.5C 261.7,9.31134 261.034,8.81134 262.5,5C 261.975,4.30762 261.308,3.80762 260.5,3.5C 259.828,4.94916 259.161,6.2825 258.5,7.5C 258.167,7.5 257.833,7.5 257.5,7.5C 256.508,7.32842 255.842,7.66175 255.5,8.5C 251.629,8.18503 247.962,8.51836 244.5,9.5C 244.167,9.5 243.833,9.5 243.5,9.5C 243.17,6.89059 241.67,5.22392 239,4.5C 238.015,6.17486 237.181,7.84152 236.5,9.5C 236.5,7.16667 236.5,4.83333 236.5,2.5C 237.306,1.27187 238.306,0.271873 239.5,-0.5 Z"/></g>
<g><path style="opacity:1" fill="#ab85fb" d="M 276.5,-0.5 C 283.833,-0.5 291.167,-0.5 298.5,-0.5C 298.877,2.2246 299.877,4.55794 301.5,6.5C 303.167,5.66667 304.833,4.83333 306.5,4C 303.937,3.23703 303.937,2.73703 306.5,2.5C 309.251,2.95544 311.418,4.28877 313,6.5C 314.418,4.63681 316.251,4.13681 318.5,5C 317.366,6.01602 317.699,6.68268 319.5,7C 315.794,8.98507 311.794,9.81841 307.5,9.5C 304.287,9.81 301.287,9.47667 298.5,8.5C 296.429,7.19144 293.929,6.52477 291,6.5C 288.081,6.54753 285.248,6.88086 282.5,7.5C 281.883,7.61071 281.383,7.94404 281,8.5C 281.046,6.68739 280.88,5.02072 280.5,3.5C 279.639,5.91064 278.306,7.91064 276.5,9.5C 276.5,6.5 276.5,3.5 276.5,0.5C 276.5,0.166667 276.5,-0.166667 276.5,-0.5 Z"/></g>
<g><path style="opacity:1" fill="#a885f2" d="M 298.5,-0.5 C 298.833,-0.5 299.167,-0.5 299.5,-0.5C 310.651,1.08108 321.651,3.41442 332.5,6.5C 329.482,6.33537 326.482,6.50204 323.5,7C 321.3,9.04605 318.633,10.0461 315.5,10C 316.737,10.2321 317.737,10.7321 318.5,11.5C 314.64,11.1916 310.974,10.5249 307.5,9.5C 311.794,9.81841 315.794,8.98507 319.5,7C 317.699,6.68268 317.366,6.01602 318.5,5C 316.251,4.13681 314.418,4.63681 313,6.5C 311.418,4.28877 309.251,2.95544 306.5,2.5C 303.937,2.73703 303.937,3.23703 306.5,4C 304.833,4.83333 303.167,5.66667 301.5,6.5C 299.877,4.55794 298.877,2.2246 298.5,-0.5 Z"/></g>
<g><path style="opacity:1" fill="#a884f8" d="M 332.5,6.5 C 336.026,8.07157 339.693,9.57157 343.5,11C 342.167,11.6667 342.167,12.3333 343.5,13C 346.043,13.1397 348.377,13.8063 350.5,15C 349.359,15.7412 349.359,16.5745 350.5,17.5C 349.667,17.8333 348.833,18.1667 348,18.5C 345.863,17.9233 343.696,17.59 341.5,17.5C 333.705,15.6356 326.039,13.6356 318.5,11.5C 317.737,10.7321 316.737,10.2321 315.5,10C 318.633,10.0461 321.3,9.04605 323.5,7C 326.482,6.50204 329.482,6.33537 332.5,6.5 Z"/></g>
<g><path style="opacity:1" fill="#a681fb" d="M 264.5,6.5 C 264.5,9.5 264.5,12.5 264.5,15.5C 262.459,24.4095 261.292,33.4095 261,42.5C 260.728,37.9244 259.895,33.5911 258.5,29.5C 258.5,22.1667 258.5,14.8333 258.5,7.5C 259.161,6.2825 259.828,4.94916 260.5,3.5C 261.308,3.80762 261.975,4.30762 262.5,5C 261.034,8.81134 261.7,9.31134 264.5,6.5 Z"/></g>
<g><path style="opacity:1" fill="#a382f3" d="M 210.5,41.5 C 207.069,40.929 203.902,39.5956 201,37.5C 199.347,37.8198 198.347,38.8198 198,40.5C 196.334,39.6598 196.167,40.1598 197.5,42C 200.814,43.8913 203.814,46.058 206.5,48.5C 200.986,47.1505 196.486,44.1505 193,39.5C 189.727,33.2878 186.727,26.9544 184,20.5C 176.871,23.3164 169.705,25.983 162.5,28.5C 161.07,28.4208 159.736,28.7542 158.5,29.5C 157.032,27.6671 155.365,27.3338 153.5,28.5C 153.833,29.1667 154.167,29.8333 154.5,30.5C 153.272,32.321 151.606,33.321 149.5,33.5C 149.338,31.4727 149.505,29.4727 150,27.5C 151.417,26.9221 152.25,25.9221 152.5,24.5C 160.724,19.893 169.39,16.0596 178.5,13C 181.72,11.4749 185.053,10.8083 188.5,11C 190.259,12.008 191.426,13.508 192,15.5C 194.057,21.2808 196.39,26.9474 199,32.5C 202.183,36.5378 206.016,39.5378 210.5,41.5 Z"/></g>
<g><path style="opacity:1" fill="#a782fb" d="M 243.5,9.5 C 242.167,9.5 240.833,9.5 239.5,9.5C 239.5,10.5 239.5,11.5 239.5,12.5C 240.5,12.5 241.5,12.5 242.5,12.5C 242.666,17.5111 242.499,22.5111 242,27.5C 241.457,29.6314 240.624,31.6314 239.5,33.5C 237.947,31.7349 237.614,29.9015 238.5,28C 236.57,22.1263 235.903,15.9596 236.5,9.5C 237.181,7.84152 238.015,6.17486 239,4.5C 241.67,5.22392 243.17,6.89059 243.5,9.5 Z"/></g>
<g><path style="opacity:1" fill="#a581fc" d="M 282.5,7.5 C 282.5,8.16667 282.5,8.83333 282.5,9.5C 281.966,23.7537 281.133,38.0871 280,52.5C 278.5,39.7177 277.333,27.051 276.5,14.5C 276.5,12.8333 276.5,11.1667 276.5,9.5C 278.306,7.91064 279.639,5.91064 280.5,3.5C 280.88,5.02072 281.046,6.68739 281,8.5C 281.383,7.94404 281.883,7.61071 282.5,7.5 Z"/></g>
<g><path style="opacity:1" fill="#a483f1" d="M 332.5,6.5 C 347.193,9.50318 360.86,14.8365 373.5,22.5C 371.418,22.528 369.584,21.8613 368,20.5C 367.493,21.9961 367.993,23.1627 369.5,24C 368.418,25.3297 367.751,26.8297 367.5,28.5C 358.765,24.7938 350.099,21.1272 341.5,17.5C 343.696,17.59 345.863,17.9233 348,18.5C 348.833,18.1667 349.667,17.8333 350.5,17.5C 349.359,16.5745 349.359,15.7412 350.5,15C 348.377,13.8063 346.043,13.1397 343.5,13C 342.167,12.3333 342.167,11.6667 343.5,11C 339.693,9.57157 336.026,8.07157 332.5,6.5 Z"/></g>
<g><path style="opacity:1" fill="#a083e9" d="M 236.5,2.5 C 236.5,4.83333 236.5,7.16667 236.5,9.5C 235.903,15.9596 236.57,22.1263 238.5,28C 237.614,29.9015 237.947,31.7349 239.5,33.5C 240.624,31.6314 241.457,29.6314 242,27.5C 242.499,22.5111 242.666,17.5111 242.5,12.5C 241.5,12.5 240.5,12.5 239.5,12.5C 239.5,11.5 239.5,10.5 239.5,9.5C 240.833,9.5 242.167,9.5 243.5,9.5C 243.833,9.5 244.167,9.5 244.5,9.5C 245.966,20.6716 243.8,31.005 238,40.5C 236.549,42.4641 234.716,43.7974 232.5,44.5C 233.449,42.2627 234.116,39.9294 234.5,37.5C 235.833,37.5 237.167,37.5 238.5,37.5C 238.297,35.3618 237.297,33.6951 235.5,32.5C 236.777,31.0783 236.443,30.0783 234.5,29.5C 235.053,20.3481 235.72,11.3481 236.5,2.5 Z"/></g>
<g><path style="opacity:1" fill="#9e7ff7" d="M 264.5,15.5 C 264.5,26.1667 264.5,36.8333 264.5,47.5C 263.991,55.4567 262.825,63.4567 261,71.5C 260.015,69.8251 259.181,68.1585 258.5,66.5C 258.5,54.1667 258.5,41.8333 258.5,29.5C 259.895,33.5911 260.728,37.9244 261,42.5C 261.292,33.4095 262.459,24.4095 264.5,15.5 Z"/></g>
<g><path style="opacity:1" fill="#9f81f3" d="M 373.5,22.5 C 385.139,27.6508 395.806,34.3174 405.5,42.5C 407.5,46.8399 406.166,49.1732 401.5,49.5C 390.691,41.6996 379.358,34.6996 367.5,28.5C 367.751,26.8297 368.418,25.3297 369.5,24C 367.993,23.1627 367.493,21.9961 368,20.5C 369.584,21.8613 371.418,22.528 373.5,22.5 Z"/></g>
<g><path style="opacity:1" fill="#9b7feb" d="M 152.5,24.5 C 152.25,25.9221 151.417,26.9221 150,27.5C 149.505,29.4727 149.338,31.4727 149.5,33.5C 151.606,33.321 153.272,32.321 154.5,30.5C 154.167,29.8333 153.833,29.1667 153.5,28.5C 155.365,27.3338 157.032,27.6671 158.5,29.5C 159.736,28.7542 161.07,28.4208 162.5,28.5C 159.328,30.2519 156.328,32.2519 153.5,34.5C 151.952,34.8212 151.285,35.8212 151.5,37.5C 150.5,37.5 149.5,37.5 148.5,37.5C 148.5,38.8333 148.5,40.1667 148.5,41.5C 151.773,41.4706 152.44,42.8039 150.5,45.5C 152.48,51.3495 152.98,57.3495 152,63.5C 150.755,66.3239 149.255,68.9906 147.5,71.5C 146.596,72.209 146.263,73.209 146.5,74.5C 143.05,75.9095 139.384,76.5762 135.5,76.5C 147.758,72.6631 152.925,64.3297 151,51.5C 148.219,44.938 145.719,38.2714 143.5,31.5C 145.091,27.5185 148.091,25.1851 152.5,24.5 Z"/></g>
<g><path style="opacity:1" fill="#9c80ec" d="M 234.5,29.5 C 236.443,30.0783 236.777,31.0783 235.5,32.5C 237.297,33.6951 238.297,35.3618 238.5,37.5C 237.167,37.5 235.833,37.5 234.5,37.5C 234.116,39.9294 233.449,42.2627 232.5,44.5C 226.154,49.7534 218.821,51.5867 210.5,50C 208.942,49.79 207.609,49.29 206.5,48.5C 211.833,48.5 217.167,48.5 222.5,48.5C 222.703,46.6096 222.037,45.1096 220.5,44C 221.167,43.6667 221.833,43.3333 222.5,43C 218.644,42.8227 214.977,42.3227 211.5,41.5C 221.9,42.4689 229.567,38.4689 234.5,29.5 Z"/></g>
<g><path style="opacity:1" fill="#9e80f8" d="M 210.5,41.5 C 210.833,41.5 211.167,41.5 211.5,41.5C 214.977,42.3227 218.644,42.8227 222.5,43C 221.833,43.3333 221.167,43.6667 220.5,44C 222.037,45.1096 222.703,46.6096 222.5,48.5C 217.167,48.5 211.833,48.5 206.5,48.5C 203.814,46.058 200.814,43.8913 197.5,42C 196.167,40.1598 196.334,39.6598 198,40.5C 198.347,38.8198 199.347,37.8198 201,37.5C 203.902,39.5956 207.069,40.929 210.5,41.5 Z"/></g>
<g><path style="opacity:1" fill="#9b7ff6" d="M 282.5,9.5 C 282.5,24.5 282.5,39.5 282.5,54.5C 281.673,59.9851 281.173,65.6518 281,71.5C 280.667,68.8333 280.333,66.1667 280,63.5C 279.667,66.8333 279.333,70.1667 279,73.5C 279.083,69.6887 278.25,66.3554 276.5,63.5C 276.5,47.1667 276.5,30.8333 276.5,14.5C 277.333,27.051 278.5,39.7177 280,52.5C 281.133,38.0871 281.966,23.7537 282.5,9.5 Z"/></g>
<g><path style="opacity:1" fill="#997ef1" d="M 153.5,34.5 C 160.849,45.3377 162.349,57.0044 158,69.5C 157.051,71.0931 155.885,72.4264 154.5,73.5C 152.409,73.3184 150.409,73.6518 148.5,74.5C 147.614,73.675 147.281,72.675 147.5,71.5C 149.255,68.9906 150.755,66.3239 152,63.5C 152.98,57.3495 152.48,51.3495 150.5,45.5C 152.44,42.8039 151.773,41.4706 148.5,41.5C 148.5,40.1667 148.5,38.8333 148.5,37.5C 149.5,37.5 150.5,37.5 151.5,37.5C 151.285,35.8212 151.952,34.8212 153.5,34.5 Z"/></g>
<g><path style="opacity:1" fill="#967eec" d="M 405.5,42.5 C 411.915,46.7407 417.915,51.574 423.5,57C 426.423,59.4162 428.757,62.2496 430.5,65.5C 428.203,64.1653 426.203,62.3319 424.5,60C 423.207,59.51 421.873,59.3433 420.5,59.5C 421.107,62.0755 422.274,64.4088 424,66.5C 424.667,67.8333 425.333,67.8333 426,66.5C 426.827,67.6621 427.66,68.8288 428.5,70C 427.42,71.4553 427.42,72.9553 428.5,74.5C 419.775,65.7709 410.775,57.4376 401.5,49.5C 406.166,49.1732 407.5,46.8399 405.5,42.5 Z"/></g>
<g><path style="opacity:1" fill="#967def" d="M 120.5,72.5 C 120.414,73.4959 120.748,74.3292 121.5,75C 118.456,75.3629 115.456,75.8629 112.5,76.5C 109.203,73.7044 106.036,70.7044 103,67.5C 102.329,68.2524 101.496,68.5858 100.5,68.5C 97.9897,68.0093 95.6564,67.0093 93.5,65.5C 94.1925,64.4822 94.8592,63.4822 95.5,62.5C 97.415,58.7278 100.415,56.8944 104.5,57C 110.39,61.7254 115.723,66.8921 120.5,72.5 Z"/></g>
<g><path style="opacity:1" fill="#917bf0" d="M 264.5,47.5 C 264.5,58.8333 264.5,70.1667 264.5,81.5C 263.671,88.6552 263.171,95.9885 263,103.5C 262.667,104.167 262.333,104.833 262,105.5C 261,104.167 260,102.833 259,101.5C 258.5,89.8381 258.333,78.1714 258.5,66.5C 259.181,68.1585 260.015,69.8251 261,71.5C 262.825,63.4567 263.991,55.4567 264.5,47.5 Z"/></g>
<g><path style="opacity:1" fill="#907be9" d="M 95.5,62.5 C 94.8592,63.4822 94.1925,64.4822 93.5,65.5C 95.6564,67.0093 97.9897,68.0093 100.5,68.5C 93.8333,75.8333 86.8333,82.8333 79.5,89.5C 78.1526,88.9717 76.8193,88.805 75.5,89C 76.2913,91.5154 75.2913,93.3487 72.5,94.5C 71.0562,92.3921 70.3896,90.0588 70.5,87.5C 77.8544,78.1456 86.1877,69.8123 95.5,62.5 Z"/></g>
<g><path style="opacity:1" fill="#907beb" d="M 430.5,65.5 C 438.267,72.5989 444.934,80.5989 450.5,89.5C 448.265,89.6821 446.265,89.0154 444.5,87.5C 443.585,88.3279 442.919,89.3279 442.5,90.5C 444.896,92.6568 446.563,95.3235 447.5,98.5C 448.689,99.4287 450.022,99.762 451.5,99.5C 452.366,102.553 454.2,104.887 457,106.5C 457.483,107.448 457.649,108.448 457.5,109.5C 455.821,109.285 454.821,109.952 454.5,111.5C 446.574,98.6497 437.908,86.3163 428.5,74.5C 427.42,72.9553 427.42,71.4553 428.5,70C 427.66,68.8288 426.827,67.6621 426,66.5C 425.333,67.8333 424.667,67.8333 424,66.5C 422.274,64.4088 421.107,62.0755 420.5,59.5C 421.873,59.3433 423.207,59.51 424.5,60C 426.203,62.3319 428.203,64.1653 430.5,65.5 Z"/></g>
<g><path style="opacity:1" fill="#907bea" d="M 147.5,71.5 C 147.281,72.675 147.614,73.675 148.5,74.5C 150.409,73.6518 152.409,73.3184 154.5,73.5C 153.073,76.7636 150.739,79.2636 147.5,81C 134.63,87.946 122.963,86.446 112.5,76.5C 115.456,75.8629 118.456,75.3629 121.5,75C 120.748,74.3292 120.414,73.4959 120.5,72.5C 125.124,75.0939 130.124,76.4272 135.5,76.5C 139.384,76.5762 143.05,75.9095 146.5,74.5C 146.263,73.209 146.596,72.209 147.5,71.5 Z"/></g>
<g><path style="opacity:1" fill="#8e7af0" d="M 282.5,54.5 C 282.5,67.5 282.5,80.5 282.5,93.5C 281.834,96.6893 281.167,100.023 280.5,103.5C 279.808,102.975 279.308,102.308 279,101.5C 278.027,103.392 277.36,105.392 277,107.5C 276.5,92.8371 276.333,78.1705 276.5,63.5C 278.25,66.3554 279.083,69.6887 279,73.5C 279.333,70.1667 279.667,66.8333 280,63.5C 280.333,66.1667 280.667,68.8333 281,71.5C 281.173,65.6518 281.673,59.9851 282.5,54.5 Z"/></g>
<g><path style="opacity:0.494" fill="#9085ca" d="M 255.5,8.5 C 255.842,7.66175 256.508,7.32842 257.5,7.5C 257.5,53.5 257.5,99.5 257.5,145.5C 257.5,145.833 257.5,146.167 257.5,146.5C 257.167,146.5 256.833,146.5 256.5,146.5C 256.832,100.33 256.499,54.3303 255.5,8.5 Z"/></g>
<g><path style="opacity:1" fill="#8a78ee" d="M 450.5,89.5 C 454.251,93.9946 457.251,98.9946 459.5,104.5C 460.623,106.518 460.623,108.518 459.5,110.5C 461.333,111.968 461.666,113.635 460.5,115.5C 458.993,113.31 456.993,111.976 454.5,111.5C 454.821,109.952 455.821,109.285 457.5,109.5C 457.649,108.448 457.483,107.448 457,106.5C 454.2,104.887 452.366,102.553 451.5,99.5C 450.022,99.762 448.689,99.4287 447.5,98.5C 446.563,95.3235 444.896,92.6568 442.5,90.5C 442.919,89.3279 443.585,88.3279 444.5,87.5C 446.265,89.0154 448.265,89.6821 450.5,89.5 Z"/></g>
<g><path style="opacity:1" fill="#8878e2" d="M 70.5,87.5 C 70.3896,90.0588 71.0562,92.3921 72.5,94.5C 75.2913,93.3487 76.2913,91.5154 75.5,89C 76.8193,88.805 78.1526,88.9717 79.5,89.5C 83.4322,94.6075 87.5988,99.6075 92,104.5C 96.1168,111.669 97.4501,119.336 96,127.5C 95.4782,130.281 94.3115,132.615 92.5,134.5C 91.4891,132.598 91.3224,130.598 92,128.5C 92.414,128.957 92.914,129.291 93.5,129.5C 94.6632,123.863 94.8299,118.196 94,112.5C 93.6667,112.833 93.3333,113.167 93,113.5C 92.1667,111.5 91.3333,109.5 90.5,107.5C 89.1667,108.5 87.8333,109.5 86.5,110.5C 88.3794,115.6 89.0461,120.933 88.5,126.5C 88.1667,126.5 87.8333,126.5 87.5,126.5C 88.5643,119.487 87.0643,113.153 83,107.5C 78.3333,102.833 73.6667,98.1667 69,93.5C 68.2615,91.1195 68.7615,89.1195 70.5,87.5 Z"/></g>
<g><path style="opacity:1" fill="#8879e8" d="M 257.5,7.5 C 257.833,7.5 258.167,7.5 258.5,7.5C 258.5,14.8333 258.5,22.1667 258.5,29.5C 258.5,41.8333 258.5,54.1667 258.5,66.5C 258.333,78.1714 258.5,89.8381 259,101.5C 260,102.833 261,104.167 262,105.5C 262.333,104.833 262.667,104.167 263,103.5C 263.171,95.9885 263.671,88.6552 264.5,81.5C 264.5,90.8333 264.5,100.167 264.5,109.5C 263.649,115.34 262.982,121.34 262.5,127.5C 261.681,124.695 261.181,121.695 261,118.5C 260.667,120.5 260.333,122.5 260,124.5C 259.667,123.833 259.333,123.167 259,122.5C 258.829,130.344 258.329,138.011 257.5,145.5C 257.5,99.5 257.5,53.5 257.5,7.5 Z"/></g>
<g><path style="opacity:1" fill="#8376eb" d="M 92.5,134.5 C 87.6828,137.179 86.6828,136.013 89.5,131C 88.6198,129.644 88.2865,128.144 88.5,126.5C 89.0461,120.933 88.3794,115.6 86.5,110.5C 87.8333,109.5 89.1667,108.5 90.5,107.5C 91.3333,109.5 92.1667,111.5 93,113.5C 93.3333,113.167 93.6667,112.833 94,112.5C 94.8299,118.196 94.6632,123.863 93.5,129.5C 92.914,129.291 92.414,128.957 92,128.5C 91.3224,130.598 91.4891,132.598 92.5,134.5 Z"/></g>
<g><path style="opacity:1" fill="#7e74e2" d="M 459.5,104.5 C 467.084,116.231 472.751,128.898 476.5,142.5C 476.861,146.91 477.361,151.243 478,155.5C 476.619,157.635 475.619,159.968 475,162.5C 474.8,160.68 473.966,159.347 472.5,158.5C 468.073,142.219 462.073,126.552 454.5,111.5C 456.993,111.976 458.993,113.31 460.5,115.5C 461.666,113.635 461.333,111.968 459.5,110.5C 460.623,108.518 460.623,106.518 459.5,104.5 Z"/></g>
<g><path style="opacity:0.426" fill="#887dd1" d="M 264.5,1.5 C 265.665,51.665 265.832,101.998 265,152.5C 264.626,153.416 264.126,154.25 263.5,155C 260.854,155.497 258.187,155.664 255.5,155.5C 255.5,155.167 255.5,154.833 255.5,154.5C 257.833,154.5 260.167,154.5 262.5,154.5C 264.398,139.635 265.065,124.635 264.5,109.5C 264.5,100.167 264.5,90.8333 264.5,81.5C 264.5,70.1667 264.5,58.8333 264.5,47.5C 264.5,36.8333 264.5,26.1667 264.5,15.5C 264.5,12.5 264.5,9.5 264.5,6.5C 264.5,4.83333 264.5,3.16667 264.5,1.5 Z"/></g>
<g><path style="opacity:1" fill="#7e74ea" d="M 262.5,127.5 C 263.621,134.092 263.621,140.592 262.5,147C 261.552,147.483 260.552,147.649 259.5,147.5C 259.5,148.833 259.5,150.167 259.5,151.5C 257.076,151.808 254.743,151.474 252.5,150.5C 254.045,149.548 255.712,149.215 257.5,149.5C 257.5,148.5 257.5,147.5 257.5,146.5C 257.5,146.167 257.5,145.833 257.5,145.5C 258.329,138.011 258.829,130.344 259,122.5C 259.333,123.167 259.667,123.833 260,124.5C 260.333,122.5 260.667,120.5 261,118.5C 261.181,121.695 261.681,124.695 262.5,127.5 Z"/></g>
<g><path style="opacity:1" fill="#8276e6" d="M 276.5,0.5 C 276.5,3.5 276.5,6.5 276.5,9.5C 276.5,11.1667 276.5,12.8333 276.5,14.5C 276.5,30.8333 276.5,47.1667 276.5,63.5C 276.333,78.1705 276.5,92.8371 277,107.5C 277.36,105.392 278.027,103.392 279,101.5C 279.308,102.308 279.808,102.975 280.5,103.5C 281.167,100.023 281.834,96.6893 282.5,93.5C 282.5,107.833 282.5,122.167 282.5,136.5C 281.143,138.294 279.977,140.294 279,142.5C 278.667,141.167 278.333,139.833 278,138.5C 276.888,148.47 276.388,158.47 276.5,168.5C 276.5,176.833 276.5,185.167 276.5,193.5C 276.167,193.5 275.833,193.5 275.5,193.5C 275.5,129.5 275.5,65.5 275.5,1.5C 275.5,0.833333 275.833,0.5 276.5,0.5 Z"/></g>
<g><path style="opacity:1" fill="#7b73df" d="M 87.5,126.5 C 87.8333,126.5 88.1667,126.5 88.5,126.5C 88.2865,128.144 88.6198,129.644 89.5,131C 86.6828,136.013 87.6828,137.179 92.5,134.5C 90.7983,139.041 87.7983,142.541 83.5,145C 78.8574,147.103 74.0241,148.603 69,149.5C 60.8489,148.171 53.0156,145.838 45.5,142.5C 47.6848,140.709 50.0181,138.875 52.5,137C 51.944,136.617 51.6107,136.117 51.5,135.5C 55.8019,136.979 60.1352,138.479 64.5,140C 75.3041,140.67 82.9708,136.17 87.5,126.5 Z"/></g>
<g><path style="opacity:0.998" fill="#7772e5" d="M 282.5,136.5 C 282.5,147.167 282.5,157.833 282.5,168.5C 281.71,169.609 281.21,170.942 281,172.5C 280.667,171.167 280.333,169.833 280,168.5C 279.138,170.087 278.471,171.754 278,173.5C 277.802,171.618 277.302,169.952 276.5,168.5C 276.388,158.47 276.888,148.47 278,138.5C 278.333,139.833 278.667,141.167 279,142.5C 279.977,140.294 281.143,138.294 282.5,136.5 Z"/></g>
<g><path style="opacity:0.35" fill="#8075cb" d="M 298.5,8.5 C 293.5,8.5 288.5,8.5 283.5,8.5C 283.5,70.8333 283.5,133.167 283.5,195.5C 282.507,186.682 282.173,177.682 282.5,168.5C 282.5,157.833 282.5,147.167 282.5,136.5C 282.5,122.167 282.5,107.833 282.5,93.5C 282.5,80.5 282.5,67.5 282.5,54.5C 282.5,39.5 282.5,24.5 282.5,9.5C 282.5,8.83333 282.5,8.16667 282.5,7.5C 285.248,6.88086 288.081,6.54753 291,6.5C 293.929,6.52477 296.429,7.19144 298.5,8.5 Z"/></g>
<g><path style="opacity:1" fill="#7a72e0" d="M 51.5,135.5 C 51.6107,136.117 51.944,136.617 52.5,137C 50.0181,138.875 47.6848,140.709 45.5,142.5C 42.2453,148.008 39.2453,153.675 36.5,159.5C 36.6104,156.941 35.9438,154.608 34.5,152.5C 33.2736,153.363 31.9403,153.363 30.5,152.5C 33.3597,145.946 36.3597,139.446 39.5,133C 40.6086,132.362 41.7753,131.862 43,131.5C 46.0643,132.565 48.8976,133.899 51.5,135.5 Z"/></g>
<g><path style="opacity:1" fill="#7872e0" d="M 264.5,109.5 C 265.065,124.635 264.398,139.635 262.5,154.5C 260.167,154.5 257.833,154.5 255.5,154.5C 251.818,154.665 248.152,154.499 244.5,154C 246.002,153.417 247.335,152.584 248.5,151.5C 245.807,149.73 242.807,149.063 239.5,149.5C 244.959,148.049 250.626,147.049 256.5,146.5C 256.833,146.5 257.167,146.5 257.5,146.5C 257.5,147.5 257.5,148.5 257.5,149.5C 255.712,149.215 254.045,149.548 252.5,150.5C 254.743,151.474 257.076,151.808 259.5,151.5C 259.5,150.167 259.5,148.833 259.5,147.5C 260.552,147.649 261.552,147.483 262.5,147C 263.621,140.592 263.621,134.092 262.5,127.5C 262.982,121.34 263.649,115.34 264.5,109.5 Z"/></g>
<g><path style="opacity:1" fill="#7671d9" d="M 239.5,149.5 C 242.807,149.063 245.807,149.73 248.5,151.5C 247.335,152.584 246.002,153.417 244.5,154C 248.152,154.499 251.818,154.665 255.5,154.5C 255.5,154.833 255.5,155.167 255.5,155.5C 244.839,156.432 234.506,158.765 224.5,162.5C 224.579,161.07 224.246,159.736 223.5,158.5C 225.951,157.481 228.451,157.481 231,158.5C 235.21,157.217 239.377,156.05 243.5,155C 239.649,154.246 235.816,153.412 232,152.5C 229.081,154.072 225.915,154.739 222.5,154.5C 227.782,151.854 233.448,150.187 239.5,149.5 Z"/></g>
<g><path style="opacity:1" fill="#7470de" d="M 224.5,162.5 C 219.031,165.736 213.364,168.736 207.5,171.5C 205.403,172.353 203.403,172.353 201.5,171.5C 195.668,174.34 194.668,173.34 198.5,168.5C 205.54,162.309 213.54,157.643 222.5,154.5C 225.915,154.739 229.081,154.072 232,152.5C 235.816,153.412 239.649,154.246 243.5,155C 239.377,156.05 235.21,157.217 231,158.5C 228.451,157.481 225.951,157.481 223.5,158.5C 224.246,159.736 224.579,161.07 224.5,162.5 Z"/></g>
<g><path style="opacity:1" fill="#7370e3" d="M 30.5,152.5 C 31.9403,153.363 33.2736,153.363 34.5,152.5C 35.9438,154.608 36.6104,156.941 36.5,159.5C 36.5979,161.553 35.9313,163.22 34.5,164.5C 32.8829,165.589 32.0496,167.256 32,169.5C 31.3333,168.833 30.6667,168.167 30,167.5C 29.2716,170.23 29.4383,172.897 30.5,175.5C 29.0622,178.823 27.2289,179.156 25,176.5C 24.6124,173.151 24.7791,169.817 25.5,166.5C 26.6054,161.625 28.272,156.958 30.5,152.5 Z"/></g>
<g><path style="opacity:1" fill="#6a6ddf" d="M 276.5,168.5 C 277.302,169.952 277.802,171.618 278,173.5C 278.471,171.754 279.138,170.087 280,168.5C 280.333,169.833 280.667,171.167 281,172.5C 281.21,170.942 281.71,169.609 282.5,168.5C 282.173,177.682 282.507,186.682 283.5,195.5C 289.013,195.791 294.013,197.458 298.5,200.5C 300.263,204.416 298.929,206.083 294.5,205.5C 294.5,204.5 294.5,203.5 294.5,202.5C 291.892,202.4 289.558,203.067 287.5,204.5C 286.903,203.861 286.07,203.528 285,203.5C 283.624,203.684 282.791,204.351 282.5,205.5C 281.778,204.449 280.778,203.782 279.5,203.5C 278.85,203.196 278.183,202.863 277.5,202.5C 276.516,199.572 276.183,196.572 276.5,193.5C 276.5,185.167 276.5,176.833 276.5,168.5 Z"/></g>
<g><path style="opacity:1" fill="#6d6dd9" d="M 198.5,168.5 C 194.668,173.34 195.668,174.34 201.5,171.5C 203.403,172.353 205.403,172.353 207.5,171.5C 195.701,180.296 186.034,190.962 178.5,203.5C 178.34,201.801 178.506,200.134 179,198.5C 179.889,199.888 180.389,199.722 180.5,198C 180.355,197.228 180.022,196.561 179.5,196C 181.131,194.908 182.798,194.075 184.5,193.5C 184.815,191.774 184.981,190.107 185,188.5C 184.061,185.985 182.561,185.318 180.5,186.5C 185.5,179.5 191.5,173.5 198.5,168.5 Z"/></g>
<g><path style="opacity:0.988" fill="#6b6cd2" d="M 476.5,142.5 C 482.373,158.195 485.706,174.528 486.5,191.5C 484.969,186.75 484.302,181.75 484.5,176.5C 483.5,176.5 482.5,176.5 481.5,176.5C 482.052,178.331 482.052,179.997 481.5,181.5C 484.045,184.766 484.878,188.432 484,192.5C 483.798,190.744 483.298,189.078 482.5,187.5C 481.749,188.376 481.249,189.376 481,190.5C 480.798,204.211 480.298,217.878 479.5,231.5C 478.865,234.931 477.865,238.264 476.5,241.5C 480.141,213.565 478.808,185.899 472.5,158.5C 473.966,159.347 474.8,160.68 475,162.5C 475.619,159.968 476.619,157.635 478,155.5C 477.361,151.243 476.861,146.91 476.5,142.5 Z"/></g>
<g><path style="opacity:1" fill="#6e6ddb" d="M 34.5,164.5 C 33.8333,167.5 33.1667,170.5 32.5,173.5C 35.4432,173.98 38.1098,174.98 40.5,176.5C 39.0857,178.598 39.7524,179.598 42.5,179.5C 42.1667,182.5 43.5,183.833 46.5,183.5C 46.5,184.5 46.5,185.5 46.5,186.5C 45.1667,186.5 43.8333,186.5 42.5,186.5C 35.6762,184.171 29.1762,181.171 23,177.5C 22.5169,173.468 23.3502,169.801 25.5,166.5C 24.7791,169.817 24.6124,173.151 25,176.5C 27.2289,179.156 29.0622,178.823 30.5,175.5C 29.4383,172.897 29.2716,170.23 30,167.5C 30.6667,168.167 31.3333,168.833 32,169.5C 32.0496,167.256 32.8829,165.589 34.5,164.5 Z"/></g>
<g><path style="opacity:0.998" fill="#6a6dd5" d="M 40.5,176.5 C 50.8426,179.509 57.5093,186.176 60.5,196.5C 58.6481,197.089 56.8148,197.756 55,198.5C 54.8283,203.202 54.3283,207.868 53.5,212.5C 52.8165,212.863 52.1499,213.196 51.5,213.5C 55.4665,202.066 52.4665,193.066 42.5,186.5C 43.8333,186.5 45.1667,186.5 46.5,186.5C 46.5,185.5 46.5,184.5 46.5,183.5C 43.5,183.833 42.1667,182.5 42.5,179.5C 39.7524,179.598 39.0857,178.598 40.5,176.5 Z"/></g>
<g><path style="opacity:1" fill="#666bd8" d="M 334.5,196.5 C 340.509,196.334 346.509,196.501 352.5,197C 353.406,198.699 353.739,200.533 353.5,202.5C 347.491,202.334 341.491,202.501 335.5,203C 334.944,203.383 334.611,203.883 334.5,204.5C 328.548,206.144 323.548,209.311 319.5,214C 321.996,215.331 323.996,217.164 325.5,219.5C 323.906,219.08 322.406,218.414 321,217.5C 320.228,217.645 319.561,217.978 319,218.5C 315.77,214.743 315.937,210.743 319.5,206.5C 318.635,205.417 317.635,205.251 316.5,206C 315.211,207.802 313.544,208.969 311.5,209.5C 317.224,201.803 324.891,197.469 334.5,196.5 Z"/></g>
<g><path style="opacity:1" fill="#6269d3" d="M 334.5,196.5 C 351.979,192.605 366.479,197.605 378,211.5C 380.656,215.144 382.489,219.144 383.5,223.5C 383.701,226.508 384.034,229.508 384.5,232.5C 384.45,234.923 383.45,236.756 381.5,238C 382.563,239.188 383.897,239.688 385.5,239.5C 385.817,242.572 385.484,245.572 384.5,248.5C 383.667,247.5 382.833,246.5 382,245.5C 380.84,240.86 379.673,236.193 378.5,231.5C 378.59,229.772 378.923,228.106 379.5,226.5C 378.675,225.614 377.675,225.281 376.5,225.5C 376.551,223.43 375.885,221.597 374.5,220C 375.452,218.7 375.452,217.533 374.5,216.5C 373.735,217.612 372.735,218.279 371.5,218.5C 365.041,208.422 355.707,203.422 343.5,203.5C 340.483,203.768 337.483,204.102 334.5,204.5C 334.611,203.883 334.944,203.383 335.5,203C 341.491,202.501 347.491,202.334 353.5,202.5C 353.739,200.533 353.406,198.699 352.5,197C 346.509,196.501 340.509,196.334 334.5,196.5 Z"/></g>
<g><path style="opacity:0.999" fill="#626ad8" d="M 486.5,191.5 C 487.815,203.803 487.815,216.137 486.5,228.5C 485.883,228.611 485.383,228.944 485,229.5C 484.502,232.817 484.335,236.15 484.5,239.5C 483.784,237.444 483.117,235.277 482.5,233C 483.617,229.927 483.784,226.76 483,223.5C 482.627,225.698 482.127,227.865 481.5,230C 481.164,231.03 480.497,231.53 479.5,231.5C 480.298,217.878 480.798,204.211 481,190.5C 481.249,189.376 481.749,188.376 482.5,187.5C 483.298,189.078 483.798,190.744 484,192.5C 484.878,188.432 484.045,184.766 481.5,181.5C 482.052,179.997 482.052,178.331 481.5,176.5C 482.5,176.5 483.5,176.5 484.5,176.5C 484.302,181.75 484.969,186.75 486.5,191.5 Z"/></g>
<g><path style="opacity:0.994" fill="#656bda" d="M 178.5,203.5 C 178.34,205.153 177.674,206.486 176.5,207.5C 175.265,207.721 174.265,208.388 173.5,209.5C 172.692,211.423 172.192,213.423 172,215.5C 170.644,216.38 169.144,216.714 167.5,216.5C 167.007,214.194 166.674,211.861 166.5,209.5C 169.587,200.774 174.253,193.107 180.5,186.5C 182.561,185.318 184.061,185.985 185,188.5C 184.981,190.107 184.815,191.774 184.5,193.5C 182.798,194.075 181.131,194.908 179.5,196C 180.022,196.561 180.355,197.228 180.5,198C 180.389,199.722 179.889,199.888 179,198.5C 178.506,200.134 178.34,201.801 178.5,203.5 Z"/></g>
<g><path style="opacity:0.991" fill="#636ad9" d="M 298.5,200.5 C 303.109,203.11 307.442,206.11 311.5,209.5C 313.544,208.969 315.211,207.802 316.5,206C 317.635,205.251 318.635,205.417 319.5,206.5C 315.937,210.743 315.77,214.743 319,218.5C 319.561,217.978 320.228,217.645 321,217.5C 322.406,218.414 323.906,219.08 325.5,219.5C 325.913,223.183 325.079,226.517 323,229.5C 322.667,227.833 322.333,226.167 322,224.5C 321.346,225.696 320.846,225.696 320.5,224.5C 321.246,223.264 321.579,221.93 321.5,220.5C 316.279,220.072 310.946,220.406 305.5,221.5C 305.773,219.549 305.107,218.049 303.5,217C 304.966,213.942 303.966,212.109 300.5,211.5C 296.287,208.894 291.953,206.561 287.5,204.5C 289.558,203.067 291.892,202.4 294.5,202.5C 294.5,203.5 294.5,204.5 294.5,205.5C 298.929,206.083 300.263,204.416 298.5,200.5 Z"/></g>
<g><path style="opacity:1" fill="#616adc" d="M 279.5,203.5 C 280.778,203.782 281.778,204.449 282.5,205.5C 282.5,208.5 282.5,211.5 282.5,214.5C 280.5,222.826 278.5,231.159 276.5,239.5C 276.5,228.167 276.5,216.833 276.5,205.5C 278.179,205.715 279.179,205.048 279.5,203.5 Z"/></g>
<g><path style="opacity:1" fill="#6069d8" d="M 60.5,196.5 C 63.2414,205.714 61.7414,214.381 56,222.5C 53.7213,225.381 50.888,227.381 47.5,228.5C 44.0385,228.566 40.7051,229.233 37.5,230.5C 34.1738,229.953 30.8404,229.453 27.5,229C 25.8648,227.252 23.8648,226.085 21.5,225.5C 28.5505,225.143 35.2171,224.143 41.5,222.5C 45.4818,220.183 48.8151,217.183 51.5,213.5C 52.1499,213.196 52.8165,212.863 53.5,212.5C 54.3283,207.868 54.8283,203.202 55,198.5C 56.8148,197.756 58.6481,197.089 60.5,196.5 Z"/></g>
<g><path style="opacity:1" fill="#5e68c8" d="M 300.5,211.5 C 303.966,212.109 304.966,213.942 303.5,217C 305.107,218.049 305.773,219.549 305.5,221.5C 310.946,220.406 316.279,220.072 321.5,220.5C 321.579,221.93 321.246,223.264 320.5,224.5C 320.846,225.696 321.346,225.696 322,224.5C 322.333,226.167 322.667,227.833 323,229.5C 325.079,226.517 325.913,223.183 325.5,219.5C 330.446,224.923 332.779,231.423 332.5,239C 332.693,247.09 330.027,253.923 324.5,259.5C 325.242,257.574 326.242,255.741 327.5,254C 327.335,252.883 327.002,251.716 326.5,250.5C 327.953,250.94 329.119,250.274 330,248.5C 330.667,242.5 330.667,236.5 330,230.5C 327.474,227.937 325.807,228.603 325,232.5C 324.667,237.167 324.333,241.833 324,246.5C 323.617,247.056 323.117,247.389 322.5,247.5C 325.269,238.061 323.269,229.895 316.5,223C 311.38,220.494 307.214,221.661 304,226.5C 300.957,232.108 299.791,238.108 300.5,244.5C 299.685,245.429 298.852,246.429 298,247.5C 297.833,247 297.667,246.5 297.5,246C 299.126,241.039 300.126,235.872 300.5,230.5C 300.142,227.124 298.475,224.791 295.5,223.5C 297.285,219.88 299.952,217.047 303.5,215C 302.29,213.961 301.29,212.794 300.5,211.5 Z"/></g>
<g><path style="opacity:1" fill="#5d69d2" d="M 176.5,207.5 C 171.274,219.081 167.941,231.081 166.5,243.5C 166.665,240.15 166.498,236.817 166,233.5C 165,230.833 164,230.833 163,233.5C 162.536,232.906 162.369,232.239 162.5,231.5C 162.5,228.167 162.5,224.833 162.5,221.5C 163.256,217.233 164.589,213.233 166.5,209.5C 166.674,211.861 167.007,214.194 167.5,216.5C 169.144,216.714 170.644,216.38 172,215.5C 172.192,213.423 172.692,211.423 173.5,209.5C 174.265,208.388 175.265,207.721 176.5,207.5 Z"/></g>
<g><path style="opacity:1" fill="#5e67c9" d="M 41.5,222.5 C 35.2171,224.143 28.5505,225.143 21.5,225.5C 23.8648,226.085 25.8648,227.252 27.5,229C 30.8404,229.453 34.1738,229.953 37.5,230.5C 40.7051,229.233 44.0385,228.566 47.5,228.5C 45.333,230.511 42.6663,231.678 39.5,232C 33.5092,232.499 27.5092,232.666 21.5,232.5C 21.8039,231.85 22.1373,231.183 22.5,230.5C 20.6471,229.24 18.8138,229.24 17,230.5C 16.0853,229.672 15.4186,228.672 15,227.5C 14.586,227.957 14.086,228.291 13.5,228.5C 12.8329,232.313 12.1663,235.979 11.5,239.5C 11.3343,235.154 11.501,230.821 12,226.5C 12.8333,225.667 13.6667,224.833 14.5,224C 23.5466,223.779 32.5466,223.279 41.5,222.5 Z"/></g>
<g><path style="opacity:0.995" fill="#5868d8" d="M 282.5,214.5 C 282.5,223.5 282.5,232.5 282.5,241.5C 281.672,247.987 281.172,254.654 281,261.5C 280.134,257.193 279.134,256.86 278,260.5C 277.827,254.652 277.327,248.985 276.5,243.5C 276.5,242.167 276.5,240.833 276.5,239.5C 278.5,231.159 280.5,222.826 282.5,214.5 Z"/></g>
<g><path style="opacity:1" fill="#5767d5" d="M 484.5,239.5 C 484.217,240.289 483.717,240.956 483,241.5C 482.786,247.658 481.786,253.658 480,259.5C 479.333,258.167 478.667,256.833 478,255.5C 478.215,258.811 478.215,262.144 478,265.5C 475.737,261.494 474.57,257.161 474.5,252.5C 474.659,248.709 475.325,245.042 476.5,241.5C 477.865,238.264 478.865,234.931 479.5,231.5C 480.497,231.53 481.164,231.03 481.5,230C 482.127,227.865 482.627,225.698 483,223.5C 483.784,226.76 483.617,229.927 482.5,233C 483.117,235.277 483.784,237.444 484.5,239.5 Z"/></g>
<g><path style="opacity:1" fill="#5666d1" d="M 295.5,223.5 C 298.475,224.791 300.142,227.124 300.5,230.5C 300.126,235.872 299.126,241.039 297.5,246C 297.667,246.5 297.833,247 298,247.5C 298.852,246.429 299.685,245.429 300.5,244.5C 301.929,248.502 304.262,252.002 307.5,255C 309.677,256.202 312.011,256.702 314.5,256.5C 317.621,257.288 319.288,259.288 319.5,262.5C 317.302,262.12 315.635,262.787 314.5,264.5C 305.986,265.658 299.486,262.325 295,254.5C 290.19,243.953 290.357,233.62 295.5,223.5 Z"/></g>
<g><path style="opacity:1" fill="#5667d2" d="M 324.5,259.5 C 322.017,262.741 318.684,264.408 314.5,264.5C 315.635,262.787 317.302,262.12 319.5,262.5C 319.288,259.288 317.621,257.288 314.5,256.5C 317.851,254.146 320.518,251.146 322.5,247.5C 323.117,247.389 323.617,247.056 324,246.5C 324.333,241.833 324.667,237.167 325,232.5C 325.807,228.603 327.474,227.937 330,230.5C 330.667,236.5 330.667,242.5 330,248.5C 329.119,250.274 327.953,250.94 326.5,250.5C 327.002,251.716 327.335,252.883 327.5,254C 326.242,255.741 325.242,257.574 324.5,259.5 Z"/></g>
<g><path style="opacity:0.992" fill="#5866c9" d="M 383.5,223.5 C 388.404,236.385 388.737,249.385 384.5,262.5C 384.804,258.785 384.137,255.285 382.5,252C 382.833,251.667 383.167,251.333 383.5,251C 381.893,251.019 380.226,251.185 378.5,251.5C 379.602,239.673 377.269,228.673 371.5,218.5C 372.735,218.279 373.735,217.612 374.5,216.5C 375.452,217.533 375.452,218.7 374.5,220C 375.885,221.597 376.551,223.43 376.5,225.5C 377.675,225.281 378.675,225.614 379.5,226.5C 378.923,228.106 378.59,229.772 378.5,231.5C 379.673,236.193 380.84,240.86 382,245.5C 382.833,246.5 383.667,247.5 384.5,248.5C 385.484,245.572 385.817,242.572 385.5,239.5C 383.897,239.688 382.563,239.188 381.5,238C 383.45,236.756 384.45,234.923 384.5,232.5C 384.034,229.508 383.701,226.508 383.5,223.5 Z"/></g>
<g><path style="opacity:1" fill="#5564d4" d="M 21.5,232.5 C 20.8333,232.5 20.5,232.833 20.5,233.5C 18.5332,241.097 17.8665,249.097 18.5,257.5C 14.5,258.167 14.5,258.833 18.5,259.5C 18.6621,261.527 18.4955,263.527 18,265.5C 17.2801,263.745 16.1134,262.911 14.5,263C 13.7256,265.405 13.2256,267.905 13,270.5C 12.8195,267.305 12.3195,264.305 11.5,261.5C 10.2602,254.154 10.2602,246.821 11.5,239.5C 12.1663,235.979 12.8329,232.313 13.5,228.5C 14.086,228.291 14.586,227.957 15,227.5C 15.4186,228.672 16.0853,229.672 17,230.5C 18.8138,229.24 20.6471,229.24 22.5,230.5C 22.1373,231.183 21.8039,231.85 21.5,232.5 Z"/></g>
<g><path style="opacity:0.98" fill="#4e63c3" d="M 275.5,193.5 C 275.833,193.5 276.167,193.5 276.5,193.5C 276.183,196.572 276.516,199.572 277.5,202.5C 278.183,202.863 278.85,203.196 279.5,203.5C 279.179,205.048 278.179,205.715 276.5,205.5C 276.5,216.833 276.5,228.167 276.5,239.5C 276.5,240.833 276.5,242.167 276.5,243.5C 276.5,260.833 276.5,278.167 276.5,295.5C 276.5,311.5 276.5,327.5 276.5,343.5C 276.5,346.5 276.5,349.5 276.5,352.5C 276.822,358.358 276.489,364.025 275.5,369.5C 275.5,310.833 275.5,252.167 275.5,193.5 Z"/></g>
<g><path style="opacity:1" fill="#5565d6" d="M 162.5,231.5 C 162.369,232.239 162.536,232.906 163,233.5C 164,230.833 165,230.833 166,233.5C 166.498,236.817 166.665,240.15 166.5,243.5C 166.5,244.5 166.5,245.5 166.5,246.5C 167.081,253.061 166.248,259.395 164,265.5C 163.311,266.357 162.478,267.023 161.5,267.5C 160.334,255.18 160.167,242.847 161,230.5C 161.383,231.056 161.883,231.389 162.5,231.5 Z"/></g>
<g><path style="opacity:1" fill="#4c61c7" d="M 486.5,228.5 C 484.27,255.104 476.936,280.104 464.5,303.5C 462.372,304.957 460.038,305.957 457.5,306.5C 457.933,303.834 458.433,301.168 459,298.5C 459.414,298.957 459.914,299.291 460.5,299.5C 461.142,295.941 462.309,292.607 464,289.5C 464.494,287.866 464.66,286.199 464.5,284.5C 468.065,273.81 471.398,263.144 474.5,252.5C 474.57,257.161 475.737,261.494 478,265.5C 478.215,262.144 478.215,258.811 478,255.5C 478.667,256.833 479.333,258.167 480,259.5C 481.786,253.658 482.786,247.658 483,241.5C 483.717,240.956 484.217,240.289 484.5,239.5C 484.335,236.15 484.502,232.817 485,229.5C 485.383,228.944 485.883,228.611 486.5,228.5 Z"/></g>
<g><path style="opacity:1" fill="#4f62c7" d="M 20.5,233.5 C 19.1967,244.497 19.1967,255.497 20.5,266.5C 22.1667,266.5 23.8333,266.5 25.5,266.5C 22.6282,267.325 19.6282,268.159 16.5,269C 15.7069,270.085 15.0402,271.252 14.5,272.5C 19.8023,273.663 25.1357,273.829 30.5,273C 31.0712,271.795 31.7379,270.628 32.5,269.5C 33.4168,270.127 34.4168,270.461 35.5,270.5C 35.5,271.5 35.5,272.5 35.5,273.5C 34.209,273.263 33.209,273.596 32.5,274.5C 26.1579,274.666 19.8246,274.5 13.5,274C 13,273.5 12.5,273 12,272.5C 11.5014,268.848 11.3347,265.182 11.5,261.5C 12.3195,264.305 12.8195,267.305 13,270.5C 13.2256,267.905 13.7256,265.405 14.5,263C 16.1134,262.911 17.2801,263.745 18,265.5C 18.4955,263.527 18.6621,261.527 18.5,259.5C 14.5,258.833 14.5,258.167 18.5,257.5C 17.8665,249.097 18.5332,241.097 20.5,233.5 Z"/></g>
<g><path style="opacity:1" fill="#5364c2" d="M 162.5,221.5 C 162.5,224.833 162.5,228.167 162.5,231.5C 161.883,231.389 161.383,231.056 161,230.5C 160.167,242.847 160.334,255.18 161.5,267.5C 162.478,267.023 163.311,266.357 164,265.5C 166.248,259.395 167.081,253.061 166.5,246.5C 167.41,253.665 168.077,260.998 168.5,268.5C 167.167,268.5 165.833,268.5 164.5,268.5C 162.941,270.545 162.274,273.545 162.5,277.5C 159.505,268.199 158.172,258.532 158.5,248.5C 158.015,239.093 159.348,230.093 162.5,221.5 Z"/></g>
<g><path style="opacity:1" fill="#4e64d2" d="M 282.5,241.5 C 282.5,249.833 282.5,258.167 282.5,266.5C 281.833,273.345 281.167,280.345 280.5,287.5C 277.893,293.192 278.226,298.859 281.5,304.5C 280.117,307.076 279.283,306.742 279,303.5C 278.667,303.833 278.333,304.167 278,304.5C 277.819,301.305 277.319,298.305 276.5,295.5C 276.5,278.167 276.5,260.833 276.5,243.5C 277.327,248.985 277.827,254.652 278,260.5C 279.134,256.86 280.134,257.193 281,261.5C 281.172,254.654 281.672,247.987 282.5,241.5 Z"/></g>
<g><path style="opacity:1" fill="#4f63d1" d="M 25.5,266.5 C 29.1667,266.5 32.8333,266.5 36.5,266.5C 37.842,267.793 39.5087,268.626 41.5,269C 39.7505,270.319 37.7505,270.819 35.5,270.5C 34.4168,270.461 33.4168,270.127 32.5,269.5C 31.7379,270.628 31.0712,271.795 30.5,273C 25.1357,273.829 19.8023,273.663 14.5,272.5C 15.0402,271.252 15.7069,270.085 16.5,269C 19.6282,268.159 22.6282,267.325 25.5,266.5 Z"/></g>
<g><path style="opacity:0.999" fill="#4d61c6" d="M 36.5,266.5 C 46.5963,267.618 53.9297,272.618 58.5,281.5C 57.8485,282.091 57.1818,282.757 56.5,283.5C 55.1319,281.363 54.1319,279.03 53.5,276.5C 51.4557,275.02 50.1224,275.52 49.5,278C 50.2335,279.766 50.5668,281.599 50.5,283.5C 47.9974,281.167 45.3307,279.001 42.5,277C 39.1983,275.974 35.8649,275.14 32.5,274.5C 33.209,273.596 34.209,273.263 35.5,273.5C 35.5,272.5 35.5,271.5 35.5,270.5C 37.7505,270.819 39.7505,270.319 41.5,269C 39.5087,268.626 37.842,267.793 36.5,266.5 Z"/></g>
<g><path style="opacity:1" fill="#4f64ce" d="M 384.5,262.5 C 383.862,268.423 381.862,273.756 378.5,278.5C 377.25,278.577 376.417,279.244 376,280.5C 375.763,275.985 374.097,275.318 371,278.5C 371.047,276.413 372.047,274.746 374,273.5C 376.557,276.181 377.724,275.515 377.5,271.5C 376.325,271.719 375.325,271.386 374.5,270.5C 375.665,267.499 377.332,264.832 379.5,262.5C 378.583,259.242 378.249,255.909 378.5,252.5C 378.5,252.167 378.5,251.833 378.5,251.5C 380.226,251.185 381.893,251.019 383.5,251C 383.167,251.333 382.833,251.667 382.5,252C 384.137,255.285 384.804,258.785 384.5,262.5 Z"/></g>
<g><path style="opacity:1" fill="#4860c9" d="M 168.5,268.5 C 171.018,277.711 174.351,286.711 178.5,295.5C 178.714,297.144 178.38,298.644 177.5,300C 180.234,300.998 181.901,302.832 182.5,305.5C 180.712,305.215 179.045,305.548 177.5,306.5C 179.021,308.291 180.854,309.624 183,310.5C 184.145,313.887 183.312,314.887 180.5,313.5C 171.861,302.888 165.861,290.888 162.5,277.5C 162.274,273.545 162.941,270.545 164.5,268.5C 165.833,268.5 167.167,268.5 168.5,268.5 Z"/></g>
<g><path style="opacity:1" fill="#4a60c3" d="M 378.5,252.5 C 378.249,255.909 378.583,259.242 379.5,262.5C 377.332,264.832 375.665,267.499 374.5,270.5C 375.325,271.386 376.325,271.719 377.5,271.5C 377.724,275.515 376.557,276.181 374,273.5C 372.047,274.746 371.047,276.413 371,278.5C 374.097,275.318 375.763,275.985 376,280.5C 376.417,279.244 377.25,278.577 378.5,278.5C 373.991,286.683 367.991,293.683 360.5,299.5C 360.489,297.983 359.823,296.816 358.5,296C 359.784,295.316 360.951,295.483 362,296.5C 363.471,292.855 365.971,290.522 369.5,289.5C 369.657,288.127 369.49,286.793 369,285.5C 365.41,288.045 361.91,290.712 358.5,293.5C 357.914,293.291 357.414,292.957 357,292.5C 355.549,294.464 353.716,295.797 351.5,296.5C 357.469,291.364 362.969,285.697 368,279.5C 373.398,271.124 376.898,262.124 378.5,252.5 Z"/></g>
<g><path style="opacity:1" fill="#4860c9" d="M 58.5,281.5 C 62.5605,288.238 63.2272,295.238 60.5,302.5C 59.5,302.5 58.5,302.5 57.5,302.5C 57.7852,304.288 57.4519,305.955 56.5,307.5C 55.7515,305.668 54.7515,304.001 53.5,302.5C 54.7883,299.033 54.7883,295.7 53.5,292.5C 52.6976,289.426 51.6976,286.426 50.5,283.5C 50.5668,281.599 50.2335,279.766 49.5,278C 50.1224,275.52 51.4557,275.02 53.5,276.5C 54.1319,279.03 55.1319,281.363 56.5,283.5C 57.1818,282.757 57.8485,282.091 58.5,281.5 Z"/></g>
<g><path style="opacity:1" fill="#4660cd" d="M 360.5,299.5 C 358.482,300.623 356.482,300.623 354.5,299.5C 353.289,300.274 353.289,301.107 354.5,302C 353.207,302.49 351.873,302.657 350.5,302.5C 350.5,303.5 350.5,304.5 350.5,305.5C 346.543,305.553 344.876,303.886 345.5,300.5C 347.147,298.674 349.147,297.34 351.5,296.5C 353.716,295.797 355.549,294.464 357,292.5C 357.414,292.957 357.914,293.291 358.5,293.5C 361.91,290.712 365.41,288.045 369,285.5C 369.49,286.793 369.657,288.127 369.5,289.5C 365.971,290.522 363.471,292.855 362,296.5C 360.951,295.483 359.784,295.316 358.5,296C 359.823,296.816 360.489,297.983 360.5,299.5 Z"/></g>
<g><path style="opacity:1" fill="#405ec4" d="M 178.5,295.5 C 184.736,305.072 192.07,313.738 200.5,321.5C 200.179,323.048 199.179,323.715 197.5,323.5C 197.022,326.278 198.022,328.278 200.5,329.5C 200.043,330.298 199.376,330.631 198.5,330.5C 195.397,328.577 192.397,326.41 189.5,324C 186.664,320.333 183.664,316.833 180.5,313.5C 183.312,314.887 184.145,313.887 183,310.5C 180.854,309.624 179.021,308.291 177.5,306.5C 179.045,305.548 180.712,305.215 182.5,305.5C 181.901,302.832 180.234,300.998 177.5,300C 178.38,298.644 178.714,297.144 178.5,295.5 Z"/></g>
<g><path style="opacity:1" fill="#415ec2" d="M 464.5,284.5 C 464.66,286.199 464.494,287.866 464,289.5C 462.309,292.607 461.142,295.941 460.5,299.5C 459.914,299.291 459.414,298.957 459,298.5C 458.433,301.168 457.933,303.834 457.5,306.5C 460.038,305.957 462.372,304.957 464.5,303.5C 461.503,310.838 457.503,317.505 452.5,323.5C 453.468,321.208 453.802,319.041 453.5,317C 452.468,315.373 451.134,314.207 449.5,313.5C 454.774,303.951 459.774,294.285 464.5,284.5 Z"/></g>
<g><path style="opacity:1" fill="#3f5fca" d="M 282.5,266.5 C 282.5,287.833 282.5,309.167 282.5,330.5C 280.248,330.916 278.748,332.249 278,334.5C 277.819,337.695 277.319,340.695 276.5,343.5C 276.5,327.5 276.5,311.5 276.5,295.5C 277.319,298.305 277.819,301.305 278,304.5C 278.333,304.167 278.667,303.833 279,303.5C 279.283,306.742 280.117,307.076 281.5,304.5C 278.226,298.859 277.893,293.192 280.5,287.5C 281.167,280.345 281.833,273.345 282.5,266.5 Z"/></g>
<g><path style="opacity:1" fill="#3f5dc4" d="M 360.5,299.5 C 353.253,305.469 345.586,310.969 337.5,316C 332.805,320.514 329.138,325.681 326.5,331.5C 325.251,332.778 323.751,333.778 322,334.5C 321.674,339.146 320.34,343.479 318,347.5C 319.358,341.981 319.692,336.315 319,330.5C 320.113,329.289 321.28,329.289 322.5,330.5C 322.833,329.833 323.167,329.167 323.5,328.5C 322.777,326.218 322.443,323.884 322.5,321.5C 327.94,312.059 335.607,305.059 345.5,300.5C 344.876,303.886 346.543,305.553 350.5,305.5C 350.5,304.5 350.5,303.5 350.5,302.5C 351.873,302.657 353.207,302.49 354.5,302C 353.289,301.107 353.289,300.274 354.5,299.5C 356.482,300.623 358.482,300.623 360.5,299.5 Z"/></g>
<g><path style="opacity:0.999" fill="#405cc1" d="M 53.5,292.5 C 54.7883,295.7 54.7883,299.033 53.5,302.5C 54.7515,304.001 55.7515,305.668 56.5,307.5C 57.4519,305.955 57.7852,304.288 57.5,302.5C 58.5,302.5 59.5,302.5 60.5,302.5C 59.324,309.009 55.9907,314.176 50.5,318C 44.7476,321.192 38.7476,323.692 32.5,325.5C 31.032,324.221 30.3653,322.554 30.5,320.5C 28.8333,320.5 27.1667,320.5 25.5,320.5C 24.8413,323.455 24.5079,326.455 24.5,329.5C 22.7971,327.149 22.2971,324.482 23,321.5C 30.7552,317.372 38.5886,313.372 46.5,309.5C 51.3615,304.925 53.6948,299.258 53.5,292.5 Z"/></g>
<g><path style="opacity:0.998" fill="#3b5cc4" d="M 449.5,313.5 C 451.134,314.207 452.468,315.373 453.5,317C 453.802,319.041 453.468,321.208 452.5,323.5C 451.345,326.475 449.678,329.142 447.5,331.5C 446.5,331.5 445.5,331.5 444.5,331.5C 444.5,332.5 444.5,333.5 444.5,334.5C 443.325,334.281 442.325,334.614 441.5,335.5C 440.014,337.302 439.014,339.302 438.5,341.5C 436.409,341.318 434.409,341.652 432.5,342.5C 431.692,342.192 431.025,341.692 430.5,341C 434.655,339.189 436.655,336.023 436.5,331.5C 440.865,325.477 445.199,319.477 449.5,313.5 Z"/></g>
<g><path style="opacity:1" fill="#3a5bbc" d="M 200.5,321.5 C 211.178,329.672 222.845,336.005 235.5,340.5C 233.208,340.244 231.041,340.577 229,341.5C 228.517,340.552 228.351,339.552 228.5,338.5C 223.316,337.434 218.482,336.1 214,334.5C 213.46,336.135 213.96,337.468 215.5,338.5C 215.291,339.086 214.957,339.586 214.5,340C 216.167,340.333 217.833,340.667 219.5,341C 219.167,341.333 218.833,341.667 218.5,342C 220.437,342.122 221.77,342.955 222.5,344.5C 213.54,341.357 205.54,336.691 198.5,330.5C 199.376,330.631 200.043,330.298 200.5,329.5C 198.022,328.278 197.022,326.278 197.5,323.5C 199.179,323.715 200.179,323.048 200.5,321.5 Z"/></g>
<g><path style="opacity:0.995" fill="#385bc5" d="M 32.5,325.5 C 32.0526,328.314 31.8859,331.314 32,334.5C 30.9153,332.343 29.7487,332.176 28.5,334C 30.0249,335.009 31.6916,335.509 33.5,335.5C 34.9697,338.318 35.9697,341.318 36.5,344.5C 34.857,344.48 33.5237,345.147 32.5,346.5C 31.6689,344.527 31.5022,342.527 32,340.5C 30.9887,341.337 29.8221,341.67 28.5,341.5C 26.5715,337.715 25.2382,333.715 24.5,329.5C 24.5079,326.455 24.8413,323.455 25.5,320.5C 27.1667,320.5 28.8333,320.5 30.5,320.5C 30.3653,322.554 31.032,324.221 32.5,325.5 Z"/></g>
<g><path style="opacity:1" fill="#365bc6" d="M 282.5,330.5 C 282.5,337.833 282.5,345.167 282.5,352.5C 281.521,355.625 281.187,358.958 281.5,362.5C 280.883,362.389 280.383,362.056 280,361.5C 279.703,358.086 279.036,354.753 278,351.5C 277.617,352.056 277.117,352.389 276.5,352.5C 276.5,349.5 276.5,346.5 276.5,343.5C 277.319,340.695 277.819,337.695 278,334.5C 278.748,332.249 280.248,330.916 282.5,330.5 Z"/></g>
<g><path style="opacity:1" fill="#3559b6" d="M 322.5,321.5 C 322.443,323.884 322.777,326.218 323.5,328.5C 323.167,329.167 322.833,329.833 322.5,330.5C 321.28,329.289 320.113,329.289 319,330.5C 319.692,336.315 319.358,341.981 318,347.5C 320.34,343.479 321.674,339.146 322,334.5C 323.751,333.778 325.251,332.778 326.5,331.5C 326.162,333.854 325.662,336.187 325,338.5C 324.5,352.163 324.333,365.829 324.5,379.5C 322.833,380.167 321.167,380.833 319.5,381.5C 320.582,379.661 321.415,377.661 322,375.5C 322.667,366.167 322.667,356.833 322,347.5C 321.781,348.938 321.281,350.271 320.5,351.5C 319.284,352.002 318.117,352.335 317,352.5C 316.83,361.676 316.33,370.676 315.5,379.5C 315.333,365.496 315.5,351.496 316,337.5C 316.826,331.529 318.993,326.196 322.5,321.5 Z"/></g>
<g><path style="opacity:1" fill="#3459bb" d="M 436.5,331.5 C 436.655,336.023 434.655,339.189 430.5,341C 431.025,341.692 431.692,342.192 432.5,342.5C 434.409,341.652 436.409,341.318 438.5,341.5C 439.014,339.302 440.014,337.302 441.5,335.5C 442.325,334.614 443.325,334.281 444.5,334.5C 444.5,333.5 444.5,332.5 444.5,331.5C 445.5,331.5 446.5,331.5 447.5,331.5C 439.618,343.054 430.284,353.387 419.5,362.5C 416.86,362.046 414.527,360.879 412.5,359C 415.704,355.964 418.704,352.797 421.5,349.5C 426.53,343.475 431.53,337.475 436.5,331.5 Z"/></g>
<g><path style="opacity:0.98" fill="#345bc0" d="M 235.5,340.5 C 235.833,340.5 236.167,340.5 236.5,340.5C 239.068,341.956 241.734,343.289 244.5,344.5C 243.66,346.614 244.327,348.447 246.5,350C 250.356,350.177 254.023,350.677 257.5,351.5C 255.833,351.5 254.167,351.5 252.5,351.5C 241.962,351.031 231.962,348.697 222.5,344.5C 221.77,342.955 220.437,342.122 218.5,342C 218.833,341.667 219.167,341.333 219.5,341C 217.833,340.667 216.167,340.333 214.5,340C 214.957,339.586 215.291,339.086 215.5,338.5C 213.96,337.468 213.46,336.135 214,334.5C 218.482,336.1 223.316,337.434 228.5,338.5C 228.351,339.552 228.517,340.552 229,341.5C 231.041,340.577 233.208,340.244 235.5,340.5 Z"/></g>
<g><path style="opacity:1" fill="#305ac4" d="M 244.5,344.5 C 250.869,344.347 257.203,344.68 263.5,345.5C 263.993,347.806 264.326,350.139 264.5,352.5C 262.492,356.428 262.159,360.595 263.5,365C 262.855,372.183 262.188,379.35 261.5,386.5C 261.664,389.187 261.497,391.854 261,394.5C 260.082,390.72 259.249,387.054 258.5,383.5C 258.827,374.318 258.493,365.318 257.5,356.5C 257.5,354.833 257.5,353.167 257.5,351.5C 254.023,350.677 250.356,350.177 246.5,350C 244.327,348.447 243.66,346.614 244.5,344.5 Z"/></g>
<g><path style="opacity:1" fill="#2d59c3" d="M 319.5,381.5 C 317.901,381.768 316.568,381.434 315.5,380.5C 315.5,380.167 315.5,379.833 315.5,379.5C 316.33,370.676 316.83,361.676 317,352.5C 318.117,352.335 319.284,352.002 320.5,351.5C 321.281,350.271 321.781,348.938 322,347.5C 322.667,356.833 322.667,366.167 322,375.5C 321.415,377.661 320.582,379.661 319.5,381.5 Z"/></g>
<g><path style="opacity:1" fill="#3058be" d="M 94.5,368.5 C 93.9177,371.832 93.0844,375.166 92,378.5C 91.8275,374.129 91.3275,369.796 90.5,365.5C 90.1667,366 89.8333,366.5 89.5,367C 88.8858,373.823 88.2192,380.656 87.5,387.5C 86.8165,387.863 86.1499,388.196 85.5,388.5C 91.0655,369.729 84.0655,359.729 64.5,358.5C 61.4816,358.665 58.4816,358.498 55.5,358C 54.6433,357.311 53.9767,356.478 53.5,355.5C 56.9491,353.828 60.2825,352.161 63.5,350.5C 78.5984,348.542 88.9317,354.542 94.5,368.5 Z"/></g>
<g><path style="opacity:0.976" fill="#3358bc" d="M 32.5,325.5 C 35.4927,336.501 39.8261,346.835 45.5,356.5C 45.2317,359.119 45.565,361.619 46.5,364C 45.2341,364.309 44.0674,364.809 43,365.5C 41.257,363.229 39.0903,361.563 36.5,360.5C 33.5601,354.286 30.8934,347.953 28.5,341.5C 29.8221,341.67 30.9887,341.337 32,340.5C 31.5022,342.527 31.6689,344.527 32.5,346.5C 33.5237,345.147 34.857,344.48 36.5,344.5C 35.9697,341.318 34.9697,338.318 33.5,335.5C 31.6916,335.509 30.0249,335.009 28.5,334C 29.7487,332.176 30.9153,332.343 32,334.5C 31.8859,331.314 32.0526,328.314 32.5,325.5 Z"/></g>
<g><path style="opacity:0.369" fill="#425caa" d="M 287.5,204.5 C 286.167,204.5 284.833,204.5 283.5,204.5C 283.5,262.833 283.5,321.167 283.5,379.5C 282.507,370.682 282.173,361.682 282.5,352.5C 282.5,345.167 282.5,337.833 282.5,330.5C 282.5,309.167 282.5,287.833 282.5,266.5C 282.5,258.167 282.5,249.833 282.5,241.5C 282.5,232.5 282.5,223.5 282.5,214.5C 282.5,211.5 282.5,208.5 282.5,205.5C 282.791,204.351 283.624,203.684 285,203.5C 286.07,203.528 286.903,203.861 287.5,204.5 Z"/></g>
<g><path style="opacity:1" fill="#3258b7" d="M 63.5,350.5 C 60.2825,352.161 56.9491,353.828 53.5,355.5C 53.9767,356.478 54.6433,357.311 55.5,358C 58.4816,358.498 61.4816,358.665 64.5,358.5C 57.5557,361.767 50.389,364.767 43,367.5C 39.4745,366.462 37.3079,364.129 36.5,360.5C 39.0903,361.563 41.257,363.229 43,365.5C 44.0674,364.809 45.2341,364.309 46.5,364C 45.565,361.619 45.2317,359.119 45.5,356.5C 51.3018,353.934 57.3018,351.934 63.5,350.5 Z"/></g>
<g><path style="opacity:1" fill="#3057b7" d="M 421.5,349.5 C 418.704,352.797 415.704,355.964 412.5,359C 414.527,360.879 416.86,362.046 419.5,362.5C 415.485,366.513 411.152,370.179 406.5,373.5C 403.164,373.467 399.997,374.134 397,375.5C 396.333,374.167 396.333,372.833 397,371.5C 399.191,370.167 401.024,368.5 402.5,366.5C 408.53,360.469 414.863,354.802 421.5,349.5 Z"/></g>
<g><path style="opacity:1" fill="#2858c1" d="M 94.5,368.5 C 94.6662,374.509 94.4995,380.509 94,386.5C 93.3457,385.304 92.8457,385.304 92.5,386.5C 93.6613,388.224 93.4947,389.89 92,391.5C 91.7508,390.376 91.2508,389.376 90.5,388.5C 89.9149,390.865 88.7482,392.865 87,394.5C 84.178,393.107 83.678,391.107 85.5,388.5C 86.1499,388.196 86.8165,387.863 87.5,387.5C 88.2192,380.656 88.8858,373.823 89.5,367C 89.8333,366.5 90.1667,366 90.5,365.5C 91.3275,369.796 91.8275,374.129 92,378.5C 93.0844,375.166 93.9177,371.832 94.5,368.5 Z"/></g>
<g><path style="opacity:1" fill="#2855c0" d="M 282.5,352.5 C 282.173,361.682 282.507,370.682 283.5,379.5C 293.987,380.494 304.654,380.828 315.5,380.5C 316.568,381.434 317.901,381.768 319.5,381.5C 321.167,380.833 322.833,380.167 324.5,379.5C 325.209,380.404 326.209,380.737 327.5,380.5C 327.881,381.931 328.881,382.764 330.5,383C 328.741,384.008 327.574,385.508 327,387.5C 325.872,385.655 325.372,383.655 325.5,381.5C 323.897,381.312 322.563,381.812 321.5,383C 323.192,384.401 323.859,386.234 323.5,388.5C 322.833,388.5 322.167,388.5 321.5,388.5C 321.5,387.5 321.5,386.5 321.5,385.5C 318.148,386.553 314.815,386.553 311.5,385.5C 310.96,384.252 310.293,383.085 309.5,382C 299.833,381.333 290.167,381.333 280.5,382C 279.663,383.011 279.33,384.178 279.5,385.5C 279.892,388.722 279.392,391.722 278,394.5C 277.333,388.833 277.333,383.167 278,377.5C 280.737,375.171 280.904,372.504 278.5,369.5C 278.559,367.233 279.392,366.567 281,367.5C 281.494,365.866 281.66,364.199 281.5,362.5C 281.187,358.958 281.521,355.625 282.5,352.5 Z"/></g>
<g><path style="opacity:0.999" fill="#2758bc" d="M 321.5,388.5 C 312.833,388.5 304.167,388.5 295.5,388.5C 298.672,387.407 301.672,385.907 304.5,384C 296.16,384.083 287.826,384.583 279.5,385.5C 279.33,384.178 279.663,383.011 280.5,382C 290.167,381.333 299.833,381.333 309.5,382C 310.293,383.085 310.96,384.252 311.5,385.5C 314.815,386.553 318.148,386.553 321.5,385.5C 321.5,386.5 321.5,387.5 321.5,388.5 Z"/></g>
<g><path style="opacity:0.984" fill="#2b54b3" d="M 402.5,366.5 C 401.024,368.5 399.191,370.167 397,371.5C 396.333,372.833 396.333,374.167 397,375.5C 399.997,374.134 403.164,373.467 406.5,373.5C 397.522,381.329 387.522,387.663 376.5,392.5C 378.089,389.92 380.422,388.587 383.5,388.5C 383.5,387.5 383.5,386.5 383.5,385.5C 382.5,385.5 381.5,385.5 380.5,385.5C 380.715,383.821 380.048,382.821 378.5,382.5C 386.223,376.782 394.223,371.449 402.5,366.5 Z"/></g>
<g><path style="opacity:1" fill="#2857bf" d="M 281.5,362.5 C 281.66,364.199 281.494,365.866 281,367.5C 279.392,366.567 278.559,367.233 278.5,369.5C 280.904,372.504 280.737,375.171 278,377.5C 277.333,383.167 277.333,388.833 278,394.5C 279.392,391.722 279.892,388.722 279.5,385.5C 287.826,384.583 296.16,384.083 304.5,384C 301.672,385.907 298.672,387.407 295.5,388.5C 291.298,388.183 287.298,388.517 283.5,389.5C 282.514,393.97 282.181,398.637 282.5,403.5C 280.833,403.5 279.167,403.5 277.5,403.5C 276.999,392.131 276.332,380.798 275.5,369.5C 276.489,364.025 276.822,358.358 276.5,352.5C 277.117,352.389 277.617,352.056 278,351.5C 279.036,354.753 279.703,358.086 280,361.5C 280.383,362.056 280.883,362.389 281.5,362.5 Z"/></g>
<g><path style="opacity:0.969" fill="#2954af" d="M 327.5,380.5 C 332.633,381.796 336.467,384.796 339,389.5C 340.317,395.757 340.817,402.091 340.5,408.5C 339.637,403.981 338.803,399.315 338,394.5C 336.644,393.62 335.144,393.286 333.5,393.5C 334.36,391.184 334.86,388.851 335,386.5C 333.559,385.74 332.059,385.074 330.5,384.5C 329.13,387.485 329.63,390.151 332,392.5C 332.818,398.349 332.652,404.015 331.5,409.5C 331.666,404.156 331.499,398.823 331,393.5C 329.563,390.292 327.063,388.625 323.5,388.5C 323.859,386.234 323.192,384.401 321.5,383C 322.563,381.812 323.897,381.312 325.5,381.5C 325.372,383.655 325.872,385.655 327,387.5C 327.574,385.508 328.741,384.008 330.5,383C 328.881,382.764 327.881,381.931 327.5,380.5 Z"/></g>
<g><path style="opacity:1" fill="#2555b7" d="M 378.5,382.5 C 380.048,382.821 380.715,383.821 380.5,385.5C 381.5,385.5 382.5,385.5 383.5,385.5C 383.5,386.5 383.5,387.5 383.5,388.5C 380.422,388.587 378.089,389.92 376.5,392.5C 371.387,395.559 366.053,398.392 360.5,401C 358.266,403.063 356.266,405.229 354.5,407.5C 351.081,410.514 349.081,409.68 348.5,405C 349.303,402.217 350.803,402.051 353,404.5C 353.5,404 354,403.5 354.5,403C 353.57,401.806 352.903,400.473 352.5,399C 353.414,397.594 354.08,396.094 354.5,394.5C 362.217,389.975 370.217,385.975 378.5,382.5 Z"/></g>
<g><path style="opacity:1" fill="#2055b7" d="M 264.5,352.5 C 264.5,389.833 264.5,427.167 264.5,464.5C 263.986,460.301 262.986,456.134 261.5,452C 262.456,448.606 262.789,445.106 262.5,441.5C 261.885,436.41 261.552,431.41 261.5,426.5C 262.297,415.332 262.964,404.332 263.5,393.5C 263.071,390.971 262.404,388.638 261.5,386.5C 262.188,379.35 262.855,372.183 263.5,365C 262.159,360.595 262.492,356.428 264.5,352.5 Z"/></g>
<g><path style="opacity:1" fill="#2653b1" d="M 94.5,368.5 C 97.6209,377.399 96.7875,386.065 92,394.5C 87.277,398.72 83.1103,403.387 79.5,408.5C 82.8554,412.187 86.1887,415.853 89.5,419.5C 83.2086,415.713 78.5419,410.546 75.5,404C 70.7054,404.863 69.3721,407.697 71.5,412.5C 68.9953,410.814 68.162,408.481 69,405.5C 74.7304,399.938 80.2304,394.271 85.5,388.5C 83.678,391.107 84.178,393.107 87,394.5C 88.7482,392.865 89.9149,390.865 90.5,388.5C 91.2508,389.376 91.7508,390.376 92,391.5C 93.4947,389.89 93.6613,388.224 92.5,386.5C 92.8457,385.304 93.3457,385.304 94,386.5C 94.4995,380.509 94.6662,374.509 94.5,368.5 Z"/></g>
<g><path style="opacity:1" fill="#1d53bd" d="M 258.5,383.5 C 259.249,387.054 260.082,390.72 261,394.5C 261.497,391.854 261.664,389.187 261.5,386.5C 262.404,388.638 263.071,390.971 263.5,393.5C 262.964,404.332 262.297,415.332 261.5,426.5C 261.552,431.41 261.885,436.41 262.5,441.5C 261.571,444.675 260.738,448.009 260,451.5C 259.828,444.654 259.328,437.987 258.5,431.5C 258.5,415.5 258.5,399.5 258.5,383.5 Z"/></g>
<g><path style="opacity:0.999" fill="#1d53ba" d="M 340.5,408.5 C 342.038,411.048 343.704,411.048 345.5,408.5C 346.222,408.082 346.722,407.416 347,406.5C 348.218,409.315 349.718,411.981 351.5,414.5C 350.311,415.429 348.978,415.762 347.5,415.5C 347.66,417.199 347.494,418.866 347,420.5C 346.329,419.748 345.496,419.414 344.5,419.5C 324.167,418.167 303.833,418.167 283.5,419.5C 282.514,423.97 282.181,428.637 282.5,433.5C 280.712,433.785 279.045,433.452 277.5,432.5C 278.624,431.086 279.624,429.586 280.5,428C 279.773,426.601 279.273,425.101 279,423.5C 278.23,422.402 277.397,422.402 276.5,423.5C 277.045,417.556 277.045,411.556 276.5,405.5C 277.5,405.5 278.5,405.5 279.5,405.5C 279.5,406.833 279.5,408.167 279.5,409.5C 280.833,409.5 282.167,409.5 283.5,409.5C 299.5,410.833 315.5,410.833 331.5,409.5C 332.652,404.015 332.818,398.349 332,392.5C 329.63,390.151 329.13,387.485 330.5,384.5C 332.059,385.074 333.559,385.74 335,386.5C 334.86,388.851 334.36,391.184 333.5,393.5C 335.144,393.286 336.644,393.62 338,394.5C 338.803,399.315 339.637,403.981 340.5,408.5 Z"/></g>
<g><path style="opacity:0.5" fill="#355995" d="M 252.5,351.5 C 254.167,351.5 255.833,351.5 257.5,351.5C 257.5,353.167 257.5,354.833 257.5,356.5C 257.832,401.003 257.499,445.336 256.5,489.5C 256.5,443.833 256.5,398.167 256.5,352.5C 254.901,352.768 253.568,352.434 252.5,351.5 Z"/></g>
<g><path style="opacity:1" fill="#1c51b4" d="M 147.5,418.5 C 148.445,419.993 149.445,421.493 150.5,423C 149.506,425.918 150.006,426.084 152,423.5C 152.5,424 153,424.5 153.5,425C 152.377,426.044 151.044,426.71 149.5,427C 151.645,427.743 151.811,428.576 150,429.5C 148.739,429.241 147.739,428.574 147,427.5C 146.922,425.343 146.755,423.343 146.5,421.5C 142.906,422.426 139.24,422.759 135.5,422.5C 128.74,422.309 122.74,424.309 117.5,428.5C 114.543,428.523 112.043,429.523 110,431.5C 109.167,430.667 108.333,429.833 107.5,429C 109.439,428.092 110.439,426.592 110.5,424.5C 118.49,415.226 128.49,412.06 140.5,415C 143.069,415.898 145.402,417.065 147.5,418.5 Z"/></g>
<g><path style="opacity:1" fill="#1d51ac" d="M 354.5,394.5 C 354.08,396.094 353.414,397.594 352.5,399C 352.903,400.473 353.57,401.806 354.5,403C 354,403.5 353.5,404 353,404.5C 350.803,402.051 349.303,402.217 348.5,405C 349.081,409.68 351.081,410.514 354.5,407.5C 353.523,427.787 353.19,448.121 353.5,468.5C 353.153,460.612 352.153,452.946 350.5,445.5C 350.237,439.702 350.237,433.702 350.5,427.5C 349.487,430.836 347.487,433.169 344.5,434.5C 344.5,429.5 344.5,424.5 344.5,419.5C 345.496,419.414 346.329,419.748 347,420.5C 347.494,418.866 347.66,417.199 347.5,415.5C 348.978,415.762 350.311,415.429 351.5,414.5C 349.718,411.981 348.218,409.315 347,406.5C 346.722,407.416 346.222,408.082 345.5,408.5C 346.492,402.51 349.492,397.844 354.5,394.5 Z"/></g>
<g><path style="opacity:1" fill="#1f52b6" d="M 89.5,419.5 C 91.5282,424.439 89.8616,426.773 84.5,426.5C 79.46,422.461 75.1266,417.794 71.5,412.5C 69.3721,407.697 70.7054,404.863 75.5,404C 78.5419,410.546 83.2086,415.713 89.5,419.5 Z"/></g>
<g><path style="opacity:1" fill="#1e4fa6" d="M 147.5,418.5 C 151.918,420.583 154.918,423.916 156.5,428.5C 155.542,428.047 154.708,427.381 154,426.5C 153.365,428.618 152.531,430.618 151.5,432.5C 152.793,439.839 152.793,447.173 151.5,454.5C 153.143,454.48 154.476,455.147 155.5,456.5C 156.738,453.832 156.738,451.166 155.5,448.5C 155.833,448.167 156.167,447.833 156.5,447.5C 157.251,448.376 157.751,449.376 158,450.5C 158.829,445.863 159.329,441.196 159.5,436.5C 161.413,445.459 159.747,453.792 154.5,461.5C 154.814,456.757 153.481,456.424 150.5,460.5C 149.719,459.271 149.219,457.938 149,456.5C 148.617,457.056 148.117,457.389 147.5,457.5C 148.374,454.081 149.54,450.748 151,447.5C 152.92,434.658 147.753,426.325 135.5,422.5C 139.24,422.759 142.906,422.426 146.5,421.5C 146.755,423.343 146.922,425.343 147,427.5C 147.739,428.574 148.739,429.241 150,429.5C 151.811,428.576 151.645,427.743 149.5,427C 151.044,426.71 152.377,426.044 153.5,425C 153,424.5 152.5,424 152,423.5C 150.006,426.084 149.506,425.918 150.5,423C 149.445,421.493 148.445,419.993 147.5,418.5 Z"/></g>
<g><path style="opacity:1" fill="#1a50b0" d="M 89.5,419.5 C 93.8314,423.663 98.3314,427.663 103,431.5C 105.37,428.961 107.87,426.628 110.5,424.5C 110.439,426.592 109.439,428.092 107.5,429C 108.333,429.833 109.167,430.667 110,431.5C 112.043,429.523 114.543,428.523 117.5,428.5C 113.149,433.851 108.149,438.517 102.5,442.5C 96.0512,437.619 90.0512,432.286 84.5,426.5C 89.8616,426.773 91.5282,424.439 89.5,419.5 Z"/></g>
<g><path style="opacity:1" fill="#375aa7" d="M 275.5,1.5 C 275.5,65.5 275.5,129.5 275.5,193.5C 275.5,252.167 275.5,310.833 275.5,369.5C 276.332,380.798 276.999,392.131 277.5,403.5C 279.167,403.5 280.833,403.5 282.5,403.5C 282.181,398.637 282.514,393.97 283.5,389.5C 283.5,396.167 283.5,402.833 283.5,409.5C 282.167,409.5 280.833,409.5 279.5,409.5C 279.5,408.167 279.5,406.833 279.5,405.5C 278.5,405.5 277.5,405.5 276.5,405.5C 277.045,411.556 277.045,417.556 276.5,423.5C 276.5,428.5 276.5,433.5 276.5,438.5C 276.202,458.534 276.536,478.534 277.5,498.5C 278.833,498.5 280.167,498.5 281.5,498.5C 284.833,498.5 288.167,498.5 291.5,498.5C 301.5,498.5 311.5,498.5 321.5,498.5C 323.415,498.216 325.081,498.549 326.5,499.5C 309.833,499.5 293.167,499.5 276.5,499.5C 276.217,498.711 275.717,498.044 275,497.5C 274.167,331.999 274.334,166.666 275.5,1.5 Z"/></g>
<g><path style="opacity:1" fill="#1450b5" d="M 156.5,428.5 C 158.585,430.684 159.585,433.351 159.5,436.5C 159.329,441.196 158.829,445.863 158,450.5C 157.751,449.376 157.251,448.376 156.5,447.5C 156.167,447.833 155.833,448.167 155.5,448.5C 156.738,451.166 156.738,453.832 155.5,456.5C 154.476,455.147 153.143,454.48 151.5,454.5C 152.793,447.173 152.793,439.839 151.5,432.5C 152.531,430.618 153.365,428.618 154,426.5C 154.708,427.381 155.542,428.047 156.5,428.5 Z"/></g>
<g><path style="opacity:1" fill="#1d51ab" d="M 283.5,419.5 C 283.5,425.167 283.5,430.833 283.5,436.5C 302.167,436.5 320.833,436.5 339.5,436.5C 339.389,437.117 339.056,437.617 338.5,438C 324.327,438.169 310.327,438.669 296.5,439.5C 290.085,441.878 290.085,442.545 296.5,441.5C 297.506,441.938 297.506,442.604 296.5,443.5C 311.152,444.499 325.818,444.833 340.5,444.5C 342.415,444.216 344.081,444.549 345.5,445.5C 345.821,451.026 345.488,456.36 344.5,461.5C 344.5,456.167 344.5,450.833 344.5,445.5C 324.167,445.5 303.833,445.5 283.5,445.5C 281.954,443.118 281.287,440.451 281.5,437.5C 279.708,437.366 278.042,437.699 276.5,438.5C 276.5,433.5 276.5,428.5 276.5,423.5C 277.397,422.402 278.23,422.402 279,423.5C 279.273,425.101 279.773,426.601 280.5,428C 279.624,429.586 278.624,431.086 277.5,432.5C 279.045,433.452 280.712,433.785 282.5,433.5C 282.181,428.637 282.514,423.97 283.5,419.5 Z"/></g>
<g><path style="opacity:1" fill="#1450b4" d="M 296.5,439.5 C 310.516,439.167 324.516,439.501 338.5,440.5C 339.853,441.524 340.52,442.857 340.5,444.5C 325.818,444.833 311.152,444.499 296.5,443.5C 297.506,442.604 297.506,441.938 296.5,441.5C 290.085,442.545 290.085,441.878 296.5,439.5 Z"/></g>
<g><path style="opacity:0.992" fill="#1550b7" d="M 350.5,445.5 C 350.67,446.822 350.337,447.989 349.5,449C 350.973,449.71 351.64,450.876 351.5,452.5C 349.856,452.714 348.356,452.38 347,451.5C 346.809,449.292 346.309,447.292 345.5,445.5C 344.081,444.549 342.415,444.216 340.5,444.5C 340.52,442.857 339.853,441.524 338.5,440.5C 324.516,439.501 310.516,439.167 296.5,439.5C 310.327,438.669 324.327,438.169 338.5,438C 339.056,437.617 339.389,437.117 339.5,436.5C 341.781,436.923 343.448,436.256 344.5,434.5C 347.487,433.169 349.487,430.836 350.5,427.5C 350.237,433.702 350.237,439.702 350.5,445.5 Z"/></g>
<g><path style="opacity:1" fill="#1c50a7" d="M 257.5,356.5 C 258.493,365.318 258.827,374.318 258.5,383.5C 258.5,399.5 258.5,415.5 258.5,431.5C 258.5,449.167 258.5,466.833 258.5,484.5C 258.5,486.833 258.5,489.167 258.5,491.5C 256.194,491.993 253.861,492.326 251.5,492.5C 249.517,492.843 248.183,492.176 247.5,490.5C 250.713,490.81 253.713,490.477 256.5,489.5C 257.499,445.336 257.832,401.003 257.5,356.5 Z"/></g>
<g><path style="opacity:0.999" fill="#104dae" d="M 225.5,450.5 C 234.573,453.24 240.239,459.24 242.5,468.5C 242.503,472.167 241.503,475.501 239.5,478.5C 240.035,480.271 240.869,480.604 242,479.5C 242.49,480.793 242.657,482.127 242.5,483.5C 240.833,483.5 239.167,483.5 237.5,483.5C 237.665,486.518 237.498,489.518 237,492.5C 236.828,485.987 236.328,479.653 235.5,473.5C 232.411,463.083 225.411,457.417 214.5,456.5C 210.135,456.731 205.969,457.064 202,457.5C 199.899,455.141 200.566,453.808 204,453.5C 205,454.167 206,454.833 207,455.5C 208.194,453.976 209.694,452.81 211.5,452C 209.833,451.667 208.167,451.333 206.5,451C 212.67,450.912 219.004,450.745 225.5,450.5 Z"/></g>
<g><path style="opacity:1" fill="#0b4db3" d="M 258.5,431.5 C 259.328,437.987 259.828,444.654 260,451.5C 260.738,448.009 261.571,444.675 262.5,441.5C 262.789,445.106 262.456,448.606 261.5,452C 262.986,456.134 263.986,460.301 264.5,464.5C 264.5,464.833 264.5,465.167 264.5,465.5C 263.515,469.634 263.182,473.968 263.5,478.5C 262.448,478.351 261.448,478.517 260.5,479C 261.61,481.737 261.777,484.571 261,487.5C 260.148,486.429 259.315,485.429 258.5,484.5C 258.5,466.833 258.5,449.167 258.5,431.5 Z"/></g>
<g><path style="opacity:0.443" fill="#28539a" d="M 236.5,340.5 C 245.374,342.534 254.374,343.701 263.5,344C 264.126,344.75 264.626,345.584 265,346.5C 265.667,396.833 265.667,447.167 265,497.5C 264.617,498.056 264.117,498.389 263.5,498.5C 264.432,487.538 264.765,476.538 264.5,465.5C 264.5,465.167 264.5,464.833 264.5,464.5C 264.5,427.167 264.5,389.833 264.5,352.5C 264.326,350.139 263.993,347.806 263.5,345.5C 257.203,344.68 250.869,344.347 244.5,344.5C 241.734,343.289 239.068,341.956 236.5,340.5 Z"/></g>
<g><path style="opacity:1" fill="#124da8" d="M 225.5,450.5 C 219.004,450.745 212.67,450.912 206.5,451C 208.167,451.333 209.833,451.667 211.5,452C 209.694,452.81 208.194,453.976 207,455.5C 206,454.833 205,454.167 204,453.5C 200.566,453.808 199.899,455.141 202,457.5C 205.969,457.064 210.135,456.731 214.5,456.5C 208.686,457.178 203.853,459.845 200,464.5C 197.117,470.923 194.283,477.257 191.5,483.5C 191.719,482.325 191.386,481.325 190.5,480.5C 188.591,481.348 186.591,481.682 184.5,481.5C 184.5,480.5 184.5,479.5 184.5,478.5C 186.809,468.395 191.809,459.895 199.5,453C 207.92,448.189 216.587,447.355 225.5,450.5 Z"/></g>
<g><path style="opacity:1" fill="#1a4d9b" d="M 283.5,445.5 C 283.5,451.167 283.5,456.833 283.5,462.5C 303.5,462.5 323.5,462.5 343.5,462.5C 343.167,463.5 342.5,464.167 341.5,464.5C 321.993,464.17 302.659,464.503 283.5,465.5C 282.167,458.833 282.167,452.167 283.5,445.5 Z"/></g>
<g><path style="opacity:0.999" fill="#0c4db0" d="M 345.5,445.5 C 346.309,447.292 346.809,449.292 347,451.5C 348.356,452.38 349.856,452.714 351.5,452.5C 351.64,450.876 350.973,449.71 349.5,449C 350.337,447.989 350.67,446.822 350.5,445.5C 352.153,452.946 353.153,460.612 353.5,468.5C 352.993,472.083 351.993,475.417 350.5,478.5C 349.842,477.602 349.176,476.602 348.5,475.5C 347.572,477.335 346.406,477.668 345,476.5C 344.289,474.101 344.456,471.768 345.5,469.5C 345.043,468.702 344.376,468.369 343.5,468.5C 340.664,468.163 339.998,466.829 341.5,464.5C 342.5,464.167 343.167,463.5 343.5,462.5C 344.167,462.5 344.5,462.167 344.5,461.5C 345.488,456.36 345.821,451.026 345.5,445.5 Z"/></g>
<g><path style="opacity:1" fill="#0a4eb0" d="M 341.5,464.5 C 339.998,466.829 340.664,468.163 343.5,468.5C 342.391,469.29 341.058,469.79 339.5,470C 322.17,470.5 304.837,470.667 287.5,470.5C 286.432,469.566 285.099,469.232 283.5,469.5C 283.5,468.167 283.5,466.833 283.5,465.5C 302.659,464.503 321.993,464.17 341.5,464.5 Z"/></g>
<g><path style="opacity:1" fill="#0b4db2" d="M 283.5,445.5 C 282.167,452.167 282.167,458.833 283.5,465.5C 283.5,466.833 283.5,468.167 283.5,469.5C 285.099,469.232 286.432,469.566 287.5,470.5C 285.901,470.232 284.568,470.566 283.5,471.5C 282.509,478.313 282.175,485.313 282.5,492.5C 278.689,492.596 278.689,493.262 282.5,494.5C 281.754,495.736 281.421,497.07 281.5,498.5C 280.167,498.5 278.833,498.5 277.5,498.5C 276.536,478.534 276.202,458.534 276.5,438.5C 278.042,437.699 279.708,437.366 281.5,437.5C 281.287,440.451 281.954,443.118 283.5,445.5 Z"/></g>
<g><path style="opacity:1" fill="#114daa" d="M 154.5,461.5 C 154.034,463.201 154.034,464.701 154.5,466C 158.259,467.879 161.925,469.713 165.5,471.5C 162.275,471.589 159.275,470.923 156.5,469.5C 152.741,469.97 152.574,470.97 156,472.5C 157.538,471.251 158.705,471.418 159.5,473C 156.677,474.841 156.844,476.341 160,477.5C 161.579,476.828 162.746,477.495 163.5,479.5C 156.707,477.188 150.207,474.188 144,470.5C 143.656,465.707 144.823,461.374 147.5,457.5C 148.117,457.389 148.617,457.056 149,456.5C 149.219,457.938 149.719,459.271 150.5,460.5C 153.481,456.424 154.814,456.757 154.5,461.5 Z"/></g>
<g><path style="opacity:0.99" fill="#074bb1" d="M 165.5,471.5 C 165.833,471.5 166.167,471.5 166.5,471.5C 165.993,472.859 164.993,473.859 163.5,474.5C 165.44,475.528 167.44,475.528 169.5,474.5C 171.666,474.43 171.999,475.096 170.5,476.5C 174.112,477.547 177.779,478.38 181.5,479C 180.24,480.113 179.073,480.28 178,479.5C 177.225,481.223 175.892,482.223 174,482.5C 170.6,481.044 167.1,480.044 163.5,479.5C 162.746,477.495 161.579,476.828 160,477.5C 156.844,476.341 156.677,474.841 159.5,473C 158.705,471.418 157.538,471.251 156,472.5C 152.574,470.97 152.741,469.97 156.5,469.5C 159.275,470.923 162.275,471.589 165.5,471.5 Z"/></g>
<g><path style="opacity:1" fill="#0d4ba6" d="M 166.5,471.5 C 172.5,473.833 178.5,476.167 184.5,478.5C 184.5,479.5 184.5,480.5 184.5,481.5C 186.591,481.682 188.591,481.348 190.5,480.5C 191.386,481.325 191.719,482.325 191.5,483.5C 191.182,486.485 189.515,488.152 186.5,488.5C 178.503,486.062 170.836,483.062 163.5,479.5C 167.1,480.044 170.6,481.044 174,482.5C 175.892,482.223 177.225,481.223 178,479.5C 179.073,480.28 180.24,480.113 181.5,479C 177.779,478.38 174.112,477.547 170.5,476.5C 171.999,475.096 171.666,474.43 169.5,474.5C 167.44,475.528 165.44,475.528 163.5,474.5C 164.993,473.859 165.993,472.859 166.5,471.5 Z"/></g>
<g><path style="opacity:1" fill="#034cae" d="M 264.5,465.5 C 264.765,476.538 264.432,487.538 263.5,498.5C 263.5,498.833 263.5,499.167 263.5,499.5C 263.167,499.5 262.833,499.5 262.5,499.5C 260.958,498.859 259.624,497.859 258.5,496.5C 256.577,495.692 254.577,495.192 252.5,495C 251.748,494.329 251.414,493.496 251.5,492.5C 253.861,492.326 256.194,491.993 258.5,491.5C 258.5,489.167 258.5,486.833 258.5,484.5C 259.315,485.429 260.148,486.429 261,487.5C 261.777,484.571 261.61,481.737 260.5,479C 261.448,478.517 262.448,478.351 263.5,478.5C 263.182,473.968 263.515,469.634 264.5,465.5 Z"/></g>
<g><path style="opacity:1" fill="#0c4ba6" d="M 343.5,468.5 C 344.376,468.369 345.043,468.702 345.5,469.5C 344.456,471.768 344.289,474.101 345,476.5C 346.406,477.668 347.572,477.335 348.5,475.5C 349.176,476.602 349.842,477.602 350.5,478.5C 346.332,489.334 338.666,496.334 327.5,499.5C 327.167,499.5 326.833,499.5 326.5,499.5C 325.081,498.549 323.415,498.216 321.5,498.5C 322.34,496.214 323.84,495.881 326,497.5C 331.624,496.345 331.457,494.845 325.5,493C 312.14,492.203 298.807,492.369 285.5,493.5C 283.109,494.191 283.109,495.191 285.5,496.5C 287.631,497.169 289.631,497.835 291.5,498.5C 288.167,498.5 284.833,498.5 281.5,498.5C 281.421,497.07 281.754,495.736 282.5,494.5C 278.689,493.262 278.689,492.596 282.5,492.5C 282.175,485.313 282.509,478.313 283.5,471.5C 284.568,470.566 285.901,470.232 287.5,470.5C 304.837,470.667 322.17,470.5 339.5,470C 341.058,469.79 342.391,469.29 343.5,468.5 Z M 283.5,471.5 C 303.5,471.5 323.5,471.5 343.5,471.5C 340.738,483.576 333.071,490.076 320.5,491C 308.171,491.5 295.838,491.667 283.5,491.5C 283.5,484.833 283.5,478.167 283.5,471.5 Z"/></g>
<g><path style="opacity:1" fill="#0b4da9" d="M 242.5,468.5 C 243.302,469.952 243.802,471.618 244,473.5C 244.499,479.157 244.666,484.824 244.5,490.5C 245.5,490.5 246.5,490.5 247.5,490.5C 248.183,492.176 249.517,492.843 251.5,492.5C 251.414,493.496 251.748,494.329 252.5,495C 254.577,495.192 256.577,495.692 258.5,496.5C 259.624,497.859 260.958,498.859 262.5,499.5C 254.833,499.5 247.167,499.5 239.5,499.5C 238.312,498.636 237.145,497.636 236,496.5C 235.5,488.841 235.334,481.174 235.5,473.5C 236.328,479.653 236.828,485.987 237,492.5C 237.498,489.518 237.665,486.518 237.5,483.5C 239.167,483.5 240.833,483.5 242.5,483.5C 242.657,482.127 242.49,480.793 242,479.5C 240.869,480.604 240.035,480.271 239.5,478.5C 241.503,475.501 242.503,472.167 242.5,468.5 Z"/></g>
<g><path style="opacity:1" fill="#014aae" d="M 321.5,498.5 C 311.5,498.5 301.5,498.5 291.5,498.5C 289.631,497.835 287.631,497.169 285.5,496.5C 283.109,495.191 283.109,494.191 285.5,493.5C 298.807,492.369 312.14,492.203 325.5,493C 331.457,494.845 331.624,496.345 326,497.5C 323.84,495.881 322.34,496.214 321.5,498.5 Z"/></g>
</svg>
